<?xml version="1.0" encoding="UTF-8"?>
<svg xmlns="http://www.w3.org/2000/svg" viewBox="0 0 2000 2000">
  <defs>
    <style>
      .cls-1 {
        stroke-width: 5.52px;
      }

      .cls-1, .cls-2, .cls-3, .cls-4, .cls-5, .cls-6, .cls-7, .cls-8, .cls-9 {
        stroke-linecap: round;
        stroke-miterlimit: 10;
      }

      .cls-1, .cls-10, .cls-3, .cls-5, .cls-6, .cls-9 {
        fill: #fff;
      }

      .cls-1, .cls-3, .cls-6 {
        stroke: #fff;
      }

      .cls-2, .cls-7 {
        fill: none;
      }

      .cls-2, .cls-8 {
        stroke: #f765a2;
      }

      .cls-2, .cls-8, .cls-9 {
        stroke-width: 4.54px;
      }

      .cls-11 {
        fill: #f765a2;
      }

      .cls-12 {
        fill: #ffa4b6;
      }

      .cls-13, .cls-4 {
        fill: #0b1355;
      }

      .cls-3 {
        stroke-width: 4.26px;
      }

      .cls-4, .cls-5, .cls-6, .cls-7 {
        stroke-width: 5px;
      }

      .cls-4, .cls-5, .cls-7 {
        stroke: #0b1355;
      }

      .cls-8 {
        fill: #ffa4b7;
      }

      .cls-9 {
        stroke: #ec008c;
      }
    </style>
  </defs>
  <g id="Layer_2" data-name="Layer 2">
    <g id="skateboard">
      <path class="cls-11" d="m1470.13,1518.88c54.48-6.06,90.07-65.33,88.27-77.18-1.57-10.35-13.9-8.62-15.75-5.16-20.29,38-36.07,57.84-74.42,65.4-38.35,7.56-714.4,14.16-764.41,0-37.58-10.64-54.13-27.4-74.42-65.4-1.85-3.46-14.18-5.19-15.75,5.16-1.8,11.85,30.66,66.46,88.27,77.18,70.23,13.07,713.73,6.06,768.21,0Z"/>
      <circle class="cls-4" cx="794.36" cy="1577.6" r="44.84"/>
      <circle class="cls-4" cx="1368.39" cy="1577.6" r="44.84"/>
    </g>
    <path class="cls-8" d="m932.44,1111.09s-39.91,7.7-61.14,0c-21.23-7.7,18.01,20.12,10.11,21.75-7.9,1.63-73.01,23.6-113.89,11.84-40.88-11.76,12.87,17.4,19.42,22.06,18.5,13.17-50.01,3.02-67.58,4.22-33.57,2.3-81.69,23.2-77.02,24.89,44.05,1.54,57.63,15.31,51.59,16.2-27.83,3.71-38.27,15.94-68.72,39.82-1.48,3.06,88.09-11.38,100.92,5.33,1.49,3.23-22.62,25.77-38.28,35.36-15.66,9.59,85.59,4.71,100.26-32.68,3.45-10.68,3,34.17-.93,41.76-3.93,7.59,47.75-32.89,57.9-69.97,2.2-7.71,16.07,15.34,13.1,35.26-2.15,14.38,27.77-71.6,64.48-97.33"/>
    <polygon class="cls-10" points="921.08 624.99 882.43 679.35 924.76 817.33 986.36 885.19 1028.45 814.75 970.9 629.93 924.76 607.76 921.08 624.99"/>
    <polygon class="cls-12" points="901.54 629.8 871.92 689.48 950.61 888.04 1019 865.88 1004.9 769.21 955.75 613.48 901.54 629.8"/>
    <path class="cls-5" d="m1123.01,689.82l9.1,139.99s72.29,20.68,79.53,23.73c7.24,3.05,117.98,49.51,189.71,83.77h0s18.97,44.09,18.97,44.09l-30.52,30.04c-71.46-23.49-198.11-70.07-198.11-70.07,0,0-3.31,169.93,5.73,193.01,9.04,23.08,60.74,89.86,82.44,138.6,20.72,46.57,37.82,150.64,39.3,159.82l-39.06,17.9-45.86-7.99c-2.97-7.41-48.18-120.07-52.51-130.86-4.48-11.16-105.63-136.49-105.63-136.49,0,0-37.39,110.42-61.61,147.21-23.2,35.24-110.22,105.26-117.53,111.11l-65.2,19.8-48.64-19.41c6.11-10.57,95.82-117.98,102.63-138.51,6.82-20.53,36.35-123.51,43.81-149.42,7.46-25.91.22-194.92.22-194.92,0,0-236.34,146.33-252.95,142.91-16.61-3.42-29.3-36.07-24.76-50.75s247.63-174.67,253.91-177.96c6.28-3.29,72.35-32.66,72.35-32.66l-4.54-134.78"/>
    <path class="cls-4" d="m1436.2,1024.67c-4.72-.08-22.46-5.36-46.4-13.23,18.34-30.55,13.39-72.47,13.25-73.31,29.66,14.16,49.71,24.92,51.95,29.3,7.68,14.99,0,57.55-18.8,57.24Z"/>
    <path class="cls-4" d="m1319.29,1433.44s40.7-11.76,47.24-1.9c10.43,15.72,13.77,64.51,3.12,73.25-10.64,8.74-127.1,7.58-135.04,0-7.94-7.58-.22-61.7-.22-61.7h1s65.41-.94,83.88-9.64h.02Z"/>
    <path class="cls-4" d="m896.46,1434.06s27.45-8.1,36.05,2.5c8.59,10.6,9.77,69.59.04,75.81-9.73,6.22-141.78,1.65-149.44-7.2-7.64-8.82-4.52-71.01-.06-71.02,59.66,8.55,113.42-.1,113.42-.1Z"/>
    <line class="cls-7" x1="1086.03" y1="1146.47" x2="1072.05" y2="1187"/>
    <polyline class="cls-5" points="946.31 554.09 1122.37 547.48 1209.03 562.67 1234.59 595.87"/>
    <path class="cls-4" d="m1291.79,742.84c-2.05,33.24-62.4,92.18-114.21,100.54-31.31,5.05-75.23-32.53-75.23-32.53,2.22-22.57,30.28-68.85,58.15-95.53,29.32-28.05,89.99-32.33,89.99-32.33,17.26,11.08,43.41,25.64,41.3,59.85Z"/>
    <path class="cls-5" d="m940.26,697.2s5.78,62.95,34.66,90.85c28.87,27.91,127.43,22.8,127.43,22.8,2.22-22.57,30.28-68.85,58.15-95.53,29.32-28.05,89.99-32.33,89.99-32.33,0,0,9.96-54.24-15.9-87.12l-74.55-48.39-225.59,42.45"/>
    <path class="cls-8" d="m905.75,662.94c59.81-22.82,42.05-53.44,51.6-45.46,61.19,46.63,47.91,82.45,41.82,92.41-6.09,9.97,35.95-15.33,28.82-48.16-7.12-32.83-3.92-58.24,0-52.12,8.05,11.24,18.01,9.24,51.16,17.81,33.15,8.58,38.58,35.33,43.95,44.2,5.38,8.87-9.59-57.25-4.32-51.46,7.97,9.72,38.92,17.45,61.25,38.26,9.85,12.23,2.16-17.15-6.49-34.31s-4.55-42.52,0-40.24c59.1,44.73,126.37-2.46,111.43.68-14.94,3.14-37.26-23.62-41.77-30.06-4.53-6.47-7.67-17.65-25.38-26.24l-76.48-50.65c-58.89-28.1-64.5-20.71-136.36-13.6-29.58,2.93-42.18,11.14-81.1,40.67l-3.3-5.9s-39.13,33.85-50.88,68.64c-11.75,34.79-22.93,50.43-78.7,84.39-8.35,3.19,19.88,31.18,68.16,9.29,6.26-6.58-7.16,81.01-99.94,98.25-18.31,4.22,55.72,44.29,85.76,16.28,7.67-7.39,9.28,84.69-61.96,105.49-27.46,8.77,88.78,22.39,131.85-42.33,3.35-6.13,6.14,38.68-9.29,58.68s46.87-10.84,62.79-73.98"/>
    <path id="Hair" class="cls-8" d="m913.24,752.71c37.05-29.35,40.28-55.81,24.88-107.17"/>
    <g>
      <path class="cls-9" d="m1122.97,540.51c-24.25,12.85-65.36,11.34-87.86-3.12-4.4-4.65,35.8-196.45,45.05-195.82,9.26.64,48.32,193.31,42.81,198.94Z"/>
      <g>
        <path class="cls-2" d="m1034.77,535.25s55.74-7.09,85.18-27.85"/>
        <path class="cls-2" d="m1040.42,498.77s55.18-8.31,71.9-30.51"/>
        <path class="cls-2" d="m1047.63,468.26s33.71-8.24,56.9-31.52"/>
        <path class="cls-2" d="m1052.68,436.74s26.25-7.53,47.59-28.9"/>
        <path class="cls-2" d="m1060.68,406.04s21.14-8.09,32.31-24.38"/>
        <path class="cls-2" d="m1066.9,379.48s15.62-9.08,21.64-18.04"/>
      </g>
      <path class="cls-13" d="m1082.49,551.73c-17.97,0-36.14-4.15-48.73-12.24l-.26-.16-.21-.22c-1.14-1.2-2.31-2.44,2.42-30.1,2.75-16.07,6.88-37.2,11.64-59.5,8.82-41.32,20.68-90.63,27.5-105.11,1.35-2.87,2.95-5.5,5.47-5.32,2.32.16,4,2.48,6.42,8.85,7.37,19.38,18.74,70.06,26.24,107.57,4.4,22.01,8.08,42.44,10.36,57.53,4.02,26.55,2.57,28.04,1.4,29.23l-.27.28-.34.18c-11.42,6.05-26.46,9.01-41.65,9.01Zm-45.22-15.94c21.81,13.45,60.33,14.8,83.69,2.95.85-6.19-4.89-44.37-16.13-98.26-11.47-55-20.76-88.32-24.74-95.45-3.86,6.71-12.95,37.46-25.37,94.08-11.23,51.18-17.9,90.29-17.46,96.67Zm85.7,4.72h0,0Zm-85.63-4.16s0,0,0,0h0Z"/>
    </g>
    <path class="cls-4" d="m683.45,1091.43c4.63-.91,20.52-9.78,42.7-21.75-23.44-26.84-28.01-61.29-28.02-62.15-26.7,19.17-40.08,30.07-41.52,34.77-4.92,16.11,8.38,52.74,26.84,49.12Z"/>
    <ellipse class="cls-3" cx="1234.92" cy="759.08" rx="2.28" ry="8.59"/>
    <ellipse class="cls-6" cx="1255.76" cy="750.5" rx="1.8" ry="7.77"/>
    <circle class="cls-6" cx="1136.82" cy="657.7" r="6.11"/>
    <circle class="cls-6" cx="1117.55" cy="698.61" r="3.03"/>
    <circle class="cls-1" cx="1218.01" cy="629.93" r="4.94"/>
    <circle class="cls-6" cx="1201.35" cy="665.54" r="2.72"/>
    <path class="cls-5" d="m1128.48,493.67c5.36-22.93,41.32-72.53,57.11-72.48,1.97,0,3.99.97,6.01,2.75l-33.17,83.46"/>
    <path class="cls-4" d="m1192.28,424.57c13.46,13.12,26.71,62.24,25.74,109.16-4.22-.5-9.56-10.32-13.49-7.37s-18.69,0-23.28-2.95-.33-17.71-7.97-12.79-17.77-2.94-17.77-2.94c0,0,12.03-77.07,34.07-82.74l2.71-.37Z"/>
  </g>
  <g id="Layer_3" data-name="Layer 3">
    <path class="cls-11" d="m1062.45,645.54s52.11-2.82,101.09-13.62c49.54-10.92,90.28-28.58,90.28-28.58,0,0,20.91,67.08-7.97,75.38-38.58,11.09-48.71-18.41-57.15-47.95l-19,5.21s19.8,68.67-32.28,79.35c-66.45,13.62-72.07-41.98-74.95-69.81Z"/>
  </g>
  <g id="Layer_7" data-name="Layer 7">
    <path class="cls-10" d="m925.07,595.74c17.58-4.06,20.88-18.96,20.88-18.96l-27.64-100.76"/>
    <g id="L_ear" data-name="L ear">
      <path class="cls-10" d="m925.07,595.74c-29.44-29.49-30.74-121.05-9.88-138.37,1.54-1.28,3.28-2.2,5.21-2.81"/>
      <path class="cls-13" d="m925.07,598.24c-.64,0-1.28-.24-1.77-.73-18.99-19.02-26.05-61.95-24.57-93.79,1.11-23.76,6.52-41.35,14.86-48.28,1.76-1.46,3.79-2.56,6.05-3.27,1.32-.41,2.72.31,3.14,1.63.42,1.32-.31,2.72-1.63,3.14-1.64.52-3.11,1.31-4.36,2.35-7.15,5.94-12.03,22.64-13.06,44.66-1.43,30.77,5.19,72.07,23.11,90.02.98.98.97,2.56,0,3.54-.49.49-1.13.73-1.77.73Z"/>
    </g>
    <g id="L_ear-2" data-name="L ear">
      <path class="cls-13" d="m921.24,454.31c24.5-6.41,75.3,35.62,87.29,65.65,0,0-8.86,5.37-17.81,2.39s0,9.33-1.12,14.93-10.82,10.45-18.29,7.84c-7.46-2.61-2.61,9.33-7.46,17.54-4.85,8.21-17.23,12.67-17.23,12.67,0,0-45.95-79.46-25.78-120.91l.41-.11Z"/>
      <path class="cls-13" d="m945.49,578.39l-1.05-1.81c-.12-.2-11.7-20.35-20.64-45.32-12.13-33.9-13.89-60.12-5.22-77.93l.5-1.02,1.53-.42c12.07-3.16,30.48,3.99,50.51,19.61,18.59,14.5,33.82,32.72,39.74,47.54l.79,1.97-1.81,1.1c-.4.24-9.96,5.94-19.9,2.62-.25-.08-.47-.15-.65-.19.21,1.07.75,2.71,1.15,3.89,1.07,3.23,2.18,6.57,1.63,9.35-.6,3.02-3,5.92-6.57,7.96-4.69,2.67-10.43,3.34-15,1.75-.46-.16-.75-.21-.9-.22-.35.73-.51,2.94-.62,4.44-.26,3.66-.59,8.22-2.96,12.24-5.25,8.88-18,13.56-18.54,13.75l-1.96.71Zm-22.9-121.83c-16.51,36.55,18.47,103.47,25.12,115.61,3.49-1.55,10.74-5.3,13.98-10.78,1.77-3,2.04-6.75,2.28-10.05.26-3.63.49-6.77,2.86-8.33,1.39-.91,3.17-1,5.3-.25,3.23,1.13,7.4.61,10.87-1.37,2.28-1.3,3.83-3.02,4.14-4.6.29-1.47-.68-4.42-1.47-6.79-1.3-3.92-2.43-7.31-.29-9.44,1.96-1.96,5.09-.92,6.12-.57,5.43,1.81,10.97.03,13.8-1.2-12.91-28.51-60.02-67.08-82.72-62.22Z"/>
    </g>
  </g>
</svg>