<?xml version="1.0" encoding="UTF-8"?>
<svg xmlns="http://www.w3.org/2000/svg" viewBox="0 0 2000 2000">
  <defs>
    <style>
      .cls-1, .cls-2, .cls-3, .cls-4, .cls-5, .cls-6, .cls-7, .cls-8, .cls-9 {
        stroke-linecap: round;
        stroke-miterlimit: 10;
      }

      .cls-1, .cls-7 {
        stroke: #f765a2;
      }

      .cls-1, .cls-7, .cls-8 {
        stroke-width: 6.83px;
      }

      .cls-1, .cls-9 {
        fill: none;
      }

      .cls-10 {
        fill: #f765a2;
      }

      .cls-11, .cls-2, .cls-4, .cls-5, .cls-6, .cls-8 {
        fill: #fff;
      }

      .cls-12 {
        fill: #ffa4b6;
      }

      .cls-13, .cls-3 {
        fill: #0b1355;
      }

      .cls-2 {
        stroke-width: 8.32px;
      }

      .cls-2, .cls-5, .cls-6 {
        stroke: #fff;
      }

      .cls-3, .cls-4, .cls-5, .cls-9 {
        stroke-width: 7.53px;
      }

      .cls-3, .cls-4, .cls-9 {
        stroke: #0b1355;
      }

      .cls-6 {
        stroke-width: 6.42px;
      }

      .cls-7 {
        fill: #ffa4b7;
      }

      .cls-8 {
        stroke: #ec008c;
      }
    </style>
  </defs>
  <g id="Layer_2" data-name="Layer 2">
    <g id="skateboard">
      <path class="cls-10" d="m1612.24,1814.25c82.01-9.12,135.59-98.35,132.89-116.19-2.36-15.59-20.93-12.98-23.72-7.77-30.55,57.2-54.3,87.08-112.03,98.45-57.73,11.38-1075.52,21.31-1150.8,0-56.58-16.02-81.49-41.25-112.03-98.45-2.78-5.21-21.35-7.82-23.72,7.77-2.7,17.84,46.16,100.06,132.89,116.19,105.74,19.67,1074.5,9.12,1156.52,0Z"/>
      <circle class="cls-3" cx="594.87" cy="1902.65" r="67.51"/>
      <circle class="cls-3" cx="1459.07" cy="1902.65" r="67.51"/>
    </g>
    <path class="cls-7" d="m802.75,1200.33s-60.08,11.6-92.04,0c-31.96-11.6,27.11,30.29,15.21,32.75-11.9,2.45-109.91,35.53-171.46,17.82-61.55-17.71,19.37,26.19,29.24,33.22,27.86,19.83-75.29,4.54-101.74,6.35-50.55,3.46-122.98,34.93-115.95,37.48,66.31,2.32,86.77,23.05,77.67,24.38-41.89,5.59-57.61,24-103.45,59.94-2.23,4.61,132.62-17.13,151.94,8.02,2.24,4.86-34.05,38.79-57.63,53.24-23.58,14.44,128.85,7.09,150.94-49.2,5.2-16.08,4.51,51.44-1.4,62.87-5.92,11.43,71.89-49.52,87.17-105.34,3.31-11.61,24.19,23.09,19.72,53.09-3.23,21.65,41.81-107.79,97.08-146.53"/>
    <polygon class="cls-11" points="785.65 468.52 727.46 550.35 791.19 758.09 883.93 860.24 947.29 754.21 860.65 475.95 791.19 442.58 785.65 468.52"/>
    <polygon class="cls-12" points="756.23 475.77 711.65 565.6 830.11 864.54 933.07 831.17 911.83 685.65 837.85 451.19 756.23 475.77"/>
    <path class="cls-4" d="m1089.65,566.12l13.7,210.75s108.83,31.13,119.73,35.73c10.9,4.59,177.62,74.54,285.6,126.11v.02l28.55,66.36-45.94,45.22c-107.58-35.36-298.25-105.49-298.25-105.49,0,0-4.98,255.83,8.63,290.57,13.61,34.75,91.44,135.28,124.11,208.66,31.19,70.11,56.94,226.79,59.17,240.61l-58.8,26.94-69.05-12.03c-4.48-11.16-72.54-180.76-79.06-197.01-6.74-16.8-159.03-205.49-159.03-205.49,0,0-56.29,166.23-92.76,221.62-34.93,53.05-165.94,158.47-176.93,167.27l-98.16,29.81-73.23-29.23c9.2-15.92,144.25-177.62,154.51-208.52,10.26-30.91,54.73-185.94,65.95-224.95,11.23-39.01.34-293.45.34-293.45,0,0-355.8,220.29-380.81,215.15-25.01-5.15-44.11-54.3-37.27-76.4,6.84-22.1,372.8-262.96,382.25-267.91,9.45-4.96,108.93-49.17,108.93-49.17l-6.84-202.91"/>
    <path class="cls-3" d="m1561.15,1070.23c-7.11-.12-33.81-8.07-69.85-19.92,27.61-45.99,20.16-109.1,19.95-110.36,44.65,21.32,74.84,37.51,78.21,44.11,11.56,22.57,0,86.64-28.3,86.17Z"/>
    <path class="cls-3" d="m1385.14,1685.63s61.28-17.7,71.12-2.86c15.7,23.67,20.73,97.12,4.7,110.28-16.02,13.16-191.34,11.42-203.3,0-11.96-11.42-.33-92.89-.33-92.89h1.51s98.47-1.42,126.27-14.51h.03Z"/>
    <path class="cls-3" d="m748.58,1686.56s41.33-12.19,54.27,3.77c12.94,15.96,14.72,104.77.06,114.14-14.66,9.37-213.45,2.48-224.98-10.84-11.5-13.28-6.81-106.91-.09-106.91,89.81,12.87,170.74-.15,170.74-.15Z"/>
    <line class="cls-9" x1="1033.98" y1="1253.6" x2="1012.94" y2="1314.61"/>
    <polyline class="cls-4" points="823.63 361.78 1088.69 351.83 1219.16 374.7 1257.63 424.68"/>
    <path class="cls-3" d="m1343.75,645.94c-3.09,50.04-93.94,138.78-171.94,151.36-47.14,7.6-113.26-48.97-113.26-48.97,3.34-33.98,45.59-103.65,87.54-143.82,44.14-42.23,135.48-48.67,135.48-48.67,25.98,16.68,65.35,38.6,62.18,90.1Z"/>
    <path class="cls-4" d="m814.52,577.23s8.7,94.77,52.18,136.77c43.46,42.02,191.84,34.32,191.84,34.32,3.34-33.98,45.59-103.65,87.54-143.82,44.14-42.23,135.48-48.67,135.48-48.67,0,0,14.99-81.66-23.94-131.16l-112.24-72.85-339.63,63.91"/>
    <path class="cls-7" d="m762.56,525.66c90.04-34.35,63.31-80.45,77.68-68.44,92.12,70.21,72.13,124.12,62.96,139.13-9.17,15,54.12-23.09,43.39-72.5-10.73-49.42-5.91-87.68,0-78.46,12.12,16.92,27.12,13.91,77.02,26.82,49.9,12.91,58.08,53.19,66.17,66.55,8.09,13.36-14.43-86.19-6.51-77.47,11.99,14.63,58.59,26.27,92.21,57.61,14.84,18.42,3.25-25.82-9.77-51.65-13.03-25.82-6.86-64.02,0-60.59,88.98,67.34,190.25-3.7,167.75,1.02-22.5,4.72-56.09-35.56-62.88-45.26-6.82-9.75-11.54-26.58-38.21-39.5l-115.14-76.25c-88.66-42.31-97.11-31.19-205.29-20.47-44.53,4.41-63.51,16.77-122.09,61.22l-4.97-8.89s-58.9,50.96-76.6,103.34c-17.69,52.38-34.51,75.92-118.48,127.05-12.58,4.81,29.93,46.94,102.61,13.98,9.42-9.91-10.79,121.96-150.46,147.91-27.57,6.35,83.89,66.68,129.12,24.51,11.55-11.12,13.96,127.51-93.28,158.81-41.34,13.2,133.66,33.71,198.5-63.73,5.04-9.24,9.24,58.24-13.98,88.34-23.22,30.1,70.56-16.32,94.53-111.37"/>
    <path id="Hair" class="cls-7" d="m773.84,660.8c55.77-44.18,60.63-84.02,37.46-161.34"/>
    <g>
      <path class="cls-8" d="m1089.59,341.34c-36.51,19.35-98.4,17.07-132.27-4.7-6.62-7,53.9-295.75,67.82-294.8,13.94.96,72.74,291.02,64.45,299.5Z"/>
      <g>
        <path class="cls-1" d="m956.81,333.42s83.91-10.67,128.23-41.92"/>
        <path class="cls-1" d="m965.31,278.5s83.07-12.52,108.24-45.94"/>
        <path class="cls-1" d="m976.17,232.56s50.75-12.4,85.67-47.45"/>
        <path class="cls-1" d="m983.77,185.11s39.51-11.34,71.64-43.51"/>
        <path class="cls-1" d="m995.81,138.9s31.82-12.18,48.64-36.7"/>
        <path class="cls-1" d="m1005.18,98.91s23.52-13.67,32.59-27.17"/>
      </g>
      <path class="cls-13" d="m1028.65,358.23c-27.06,0-54.41-6.24-73.36-18.42l-.39-.25-.31-.33c-1.71-1.81-3.48-3.68,3.64-45.31,4.14-24.19,10.36-56.01,17.53-89.58,13.28-62.2,31.13-136.44,41.41-158.24,2.03-4.31,4.43-8.28,8.24-8.01,3.49.24,6.02,3.73,9.67,13.33,11.1,29.17,28.22,105.47,39.5,161.95,6.62,33.14,12.16,63.89,15.6,86.61,6.05,39.97,3.86,42.21,2.1,44l-.41.42-.52.27c-17.19,9.11-39.84,13.57-62.71,13.57Zm-68.08-23.99c32.83,20.24,90.83,22.29,125.99,4.44,1.28-9.32-7.36-66.8-24.28-147.93-17.27-82.8-31.25-132.96-37.24-143.69-5.81,10.11-19.49,56.39-38.19,141.64-16.9,77.05-26.95,135.93-26.28,145.54Zm129.03,7.1h.01-.01Zm-128.91-6.26s0,0,0,0h0Z"/>
    </g>
    <path class="cls-3" d="m427.91,1170.73c6.97-1.37,30.9-14.73,64.29-32.74-35.28-40.41-42.17-92.28-42.18-93.56-40.2,28.85-60.34,45.26-62.5,52.35-7.4,24.25,12.62,79.4,40.4,73.95Z"/>
    <ellipse class="cls-6" cx="1258.13" cy="670.4" rx="3.44" ry="12.93"/>
    <ellipse class="cls-5" cx="1289.5" cy="657.47" rx="2.71" ry="11.69"/>
    <circle class="cls-5" cx="1110.44" cy="517.77" r="9.2"/>
    <circle class="cls-5" cx="1081.43" cy="579.36" r="4.56"/>
    <circle class="cls-2" cx="1232.68" cy="475.95" r="7.43"/>
    <circle class="cls-5" cx="1207.59" cy="529.56" r="4.1"/>
    <path class="cls-4" d="m1097.88,270.82c8.07-34.52,62.21-109.19,85.97-109.12,2.97,0,6.01,1.46,9.05,4.15l-49.93,125.65"/>
    <path class="cls-3" d="m1193.93,166.79c20.26,19.76,40.21,93.71,38.75,164.33-6.35-.75-14.39-15.54-20.31-11.1-5.92,4.44-28.14,0-35.05-4.44-6.91-4.44-.49-26.66-11.99-19.25-11.5,7.41-26.76-4.43-26.76-4.43,0,0,18.11-116.02,51.29-124.56l4.09-.55Z"/>
  </g>
  <g id="Layer_3" data-name="Layer 3">
    <path class="cls-10" d="m998.48,499.46s78.46-4.24,152.19-20.5c74.58-16.44,135.91-43.02,135.91-43.02,0,0,31.49,100.99-12.01,113.49-58.08,16.69-73.34-27.71-86.04-72.19l-28.61,7.85s29.82,103.39-48.6,119.47c-100.03,20.51-108.5-63.2-112.84-105.09Z"/>
  </g>
  <g id="Layer_7" data-name="Layer 7">
    <path class="cls-11" d="m791.65,424.49c26.47-6.11,31.43-28.54,31.43-28.54l-41.61-151.69"/>
    <g id="L_ear" data-name="L ear">
      <path class="cls-11" d="m791.65,424.49c-44.32-44.39-46.28-182.24-14.88-208.32,2.31-1.92,4.94-3.32,7.84-4.23"/>
      <path class="cls-13" d="m791.65,428.25c-.96,0-1.93-.37-2.66-1.1-28.59-28.64-39.22-93.27-36.99-141.19,1.66-35.76,9.82-62.26,22.37-72.68,2.64-2.19,5.71-3.85,9.11-4.93,1.98-.62,4.1.47,4.72,2.45.63,1.98-.47,4.1-2.45,4.72-2.47.78-4.68,1.97-6.57,3.54-10.76,8.94-18.11,34.08-19.66,67.24-2.16,46.33,7.81,108.5,34.8,135.52,1.47,1.47,1.47,3.85,0,5.32-.74.73-1.7,1.1-2.66,1.1Z"/>
    </g>
    <g id="L_ear-2" data-name="L ear">
      <path class="cls-13" d="m785.89,211.57c36.88-9.66,113.36,53.62,131.42,98.84,0,0-13.33,8.09-26.82,3.59s0,14.05-1.69,22.47-16.29,15.73-27.53,11.8c-11.24-3.93-3.93,14.05-11.24,26.41-7.3,12.36-25.94,19.07-25.94,19.07,0,0-69.18-119.63-38.81-182.02l.61-.17Z"/>
      <path class="cls-13" d="m822.4,398.36l-1.57-2.72c-.17-.3-17.62-30.64-31.08-68.23-18.27-51.03-20.91-90.5-7.86-117.32l.75-1.53,2.3-.63c18.17-4.76,45.88,6,76.04,29.52,27.99,21.83,50.92,49.25,59.83,71.57l1.18,2.96-2.73,1.65c-.61.37-15,8.94-29.96,3.94-.38-.13-.7-.22-.98-.29.32,1.62,1.13,4.07,1.73,5.86,1.61,4.87,3.28,9.9,2.45,14.07-.91,4.55-4.51,8.92-9.89,11.99-7.06,4.03-15.71,5.03-22.58,2.63-.69-.24-1.12-.31-1.36-.33-.53,1.09-.77,4.42-.93,6.68-.4,5.51-.89,12.38-4.46,18.42-7.9,13.37-27.1,20.41-27.91,20.7l-2.96,1.07Zm-34.48-183.41c-24.85,55.02,27.8,155.78,37.82,174.05,5.25-2.34,16.17-7.98,21.05-16.23,2.67-4.52,3.08-10.16,3.43-15.13.39-5.47.73-10.19,4.31-12.53,2.09-1.37,4.77-1.5,7.98-.38,4.87,1.71,11.14.92,16.36-2.06,3.43-1.96,5.76-4.54,6.24-6.92.44-2.22-1.03-6.66-2.21-10.23-1.96-5.91-3.65-11.01-.44-14.22,2.95-2.95,7.67-1.38,9.22-.87,8.17,2.72,16.51.04,20.78-1.81-19.44-42.92-90.37-100.99-124.53-93.67Z"/>
    </g>
  </g>
</svg>