<?xml version="1.0" encoding="utf-8"?>
<!-- Generator: Adobe Illustrator 27.4.1, SVG Export Plug-In . SVG Version: 6.00 Build 0)  -->
<svg version="1.1" id="Layer_7" xmlns="http://www.w3.org/2000/svg" xmlns:xlink="http://www.w3.org/1999/xlink" x="0px" y="0px"
	 viewBox="0 0 2000 2000" style="enable-background:new 0 0 2000 2000;" xml:space="preserve">
<style type="text/css">
	.st0{fill:#FFA4B6;}
	.st1{fill:#FFA4B7;}
	.st2{fill:#F765A2;}
	.st3{fill:#FFFFFF;}
	.st4{fill:#0B1355;}
	.st5{fill:#EC008C;}
</style>
<polygon class="st0" points="794.3,532.2 741.4,638.8 881.9,993.5 1004.1,953.9 978.9,781.2 891.1,503 "/>
<g>
	<path class="st1" d="M842.1,1345.9c0,0-71.9,10.1-109.1-5.6s30.3,37.5,16,39.7c-14.3,2.2-132.4,35.5-204.3,10.7
		c-71.9-24.7,21.4,32.2,32.6,41.1c31.8,25.2-89.5,0.8-120.9,1.4c-60.1,1-147.8,33.9-139.7,37.4c78.4,6.8,101.4,32.6,90.6,33.6
		c-50,4.1-69.7,25-126.2,64.8c-2.9,5.3,158.2-12.3,179.6,18.7c2.4,5.9-42.7,43.9-71.5,59.6s152.3,16.2,181.8-49.2
		c7.1-18.7,2.2,61.2-5.5,74.4c-7.7,13.2,88.2-54.3,109.7-119.6c4.6-13.6,27.3,28.8,20.1,64.1c-5.1,25.5,56.1-125.2,123.9-167.8"/>
	<path class="st2" d="M565.8,1678.3c-1.6,0-3.1-0.7-3.9-2c-0.8-1.1-1.3-3.1,0.2-5.8c4.6-7.9,8.2-44.7,8.4-63
		c-30.8,46.1-135,56.1-172.2,51.7c-10.5-1.2-15.3-3.5-16.1-7.7c-0.6-3,1.1-5.6,5.1-7.8c28.3-15.4,64.6-47,69.1-55
		c-16.7-18.8-102.2-16.3-143.8-15.1c-31.1,0.9-33,0.8-34.9-2.3c-0.8-1.3-0.9-2.9-0.1-4.3l0.4-0.8l0.8-0.5c9.4-6.6,18-12.9,25.6-18.4
		c37.9-27.5,59-43,100.1-46.9c-6.2-6.4-32-20.9-88-25.7l-0.6-0.1l-0.6-0.3c-2.2-0.9-3.4-3-2.9-5.3c0.4-2.3,2.1-4.9,16.8-11.1
		c9.5-3.9,22-8.3,35.2-12.2c20-6,58.5-16.1,92.2-16.6c10.1-0.1,28.9,2.1,48.7,4.5c24.6,3,65,7.9,73,4.4c-0.5-0.6-1.4-1.6-3.3-3.1
		c-2.1-1.6-7.5-5.3-13.7-9.5c-41.2-27.7-50-35.5-46.9-41.8c2.2-4.4,7.7-5.1,31.8,3.1c60.9,21,155.2-0.4,190.7-8.4
		c4.2-0.9,7.3-1.7,9.5-2.1c-2.3-4.1-9.5-12.1-14.1-17.1c-12.1-13.4-16.9-19-13.6-23.6c2.9-4.1,9.2-1.9,16,0.9
		c35.7,15.1,106.2,5.4,106.9,5.3c2.2-0.3,4.3,1.2,4.6,3.4s-1.2,4.3-3.4,4.6c-3,0.4-73.4,10.1-111.2-5.8c-1-0.4-1.9-0.8-2.7-1.1
		c2.7,3.3,6.5,7.6,9.5,10.9c13.2,14.6,18.4,21.1,16.6,26.3c-0.8,2.1-2.6,3.5-5.1,3.9c-1.8,0.3-5.7,1.2-11.1,2.4
		c-36.1,8.2-132,29.9-195.1,8.2c-9.6-3.3-15.4-4.8-18.7-5.5c8.1,7.7,30.5,22.7,41,29.8c6.7,4.5,11.9,8,14.2,9.8
		c2.4,1.9,8.7,6.9,6.3,12.5c-3.6,8.6-23.6,7.7-82.1,0.6c-19.6-2.4-38.1-4.7-47.6-4.5c-45.9,0.8-107.5,20.6-129.2,30.3
		c56.5,6.5,86.5,23.7,86.6,34.5c0,2.8-1.9,5.7-6.2,6.1c-40.5,3.3-59.9,17.4-98.6,45.6c-5.1,3.8-10.8,7.8-16.8,12.2
		c5.6-0.1,12.9-0.3,20-0.5c65.4-1.9,136.5-2.1,151.7,19.8l0.3,0.4l0.2,0.4c1,2.5,2.9,7.2-25.2,30.7c-15.7,13.1-33.4,25.7-46.7,33.1
		c12,3.1,53.2,3.3,95.1-6.4c29.7-6.9,67.6-20.7,79.7-47.1c0.6-1.7,2-5,5.1-5.3c1.7-0.2,3.4,0.6,4.4,2.2c4.2,6.4,0.4,52.9-4.9,73.3
		c21.1-13.4,82.7-64.1,99.5-115.1c1.7-5,5.5-5.9,8.2-5.1c9.5,2.6,21.2,30.4,21.1,56.7c1-1.8,2-3.7,3-5.6
		c21.1-39.5,65.2-121.6,113.4-151.8c1.9-1.2,4.4-0.6,5.6,1.3c1.2,1.9,0.6,4.4-1.3,5.6c-46.4,29.1-89.7,109.9-110.5,148.8
		c-3.5,6.5-6.2,11.6-8.3,15.2c-2.7,4.7-4.9,8.4-8.7,7.1c-3.7-1.3-2.9-5.6-2.5-7.5c5.3-26.4-7-55.2-12.7-60.9
		c-20.6,60.4-101.3,121.4-112.1,122.9C566.3,1678.3,566.1,1678.3,565.8,1678.3L565.8,1678.3z M699.2,1619.4L699.2,1619.4z"/>
</g>
<g>
	<path class="st3" d="M1321.6,1104v155.5l-19.6,148.1l-154.4,105.5c0,0-43.2-37-65.5-32.2c-13.1,2.9-94.5,96.2-94.5,96.2l-59.9,58.2
		l-132.5-105.4l31-115.6c13.3-46.3,9.4-296.2,9.4-296.2s-433.7,223.6-463.4,217.5c-29.7-6.1-52.3-64.4-44.2-90.7
		c8.1-26.2,470-284.9,470-284.9L912,907.3l-4.4-131.1l287-10.3"/>
	<path class="st4" d="M928,1641.4l-137.9-109.7l31.7-118.4c11.8-40.8,9.8-246.6,9.3-287.8c-24.9,12.8-118.7,60.8-214.2,107.8
		c-225.7,111-240.2,108-245.7,106.8c-12.1-2.5-24-12.8-33.6-29c-13.3-22.4-19.1-50.7-14-67.4c1.5-4.9,5.6-18.1,240.1-154.8
		c115.2-67.2,230.9-132,232-132.6l0.3-0.2l111.4-51.7l-4.5-132.6l291.4-10.5c2.4-0.1,4.5,1.8,4.6,4.3c0.1,2.5-1.8,4.5-4.3,4.6
		l-282.5,10.2l4.4,129.6L800,964.2c-4.8,2.7-117.4,65.8-230.1,131.5c-208.1,121.3-235.5,145.8-237.7,150.7
		c-4.4,14.1,1.3,40,13.2,60.1c8.3,14,18.1,22.8,27.7,24.8c5.1,1,38.8-7.2,239.9-106.1c110.8-54.5,219.4-110.5,220.5-111l6.4-3.3
		l0.1,7.2c0.2,10.2,3.8,251.2-9.5,297.5l-30.2,112.7l127.2,101.1l57-55.4c19.5-22.3,83.3-94.6,96.8-97.5
		c21.3-4.6,56.3,22.3,66.8,30.9l150-102.4l19.3-145.8v-155.2c0-2.5,2-4.5,4.5-4.5c2.5,0,4.5,2,4.5,4.5v155.8l-19.9,150.3
		l-158.9,108.5l-2.6-2.2c-11.6-9.9-45.2-34.8-61.7-31.2c-7.8,2.1-52.9,49.9-92.1,94.8l-0.3,0.3L928,1641.4L928,1641.4z"/>
</g>
<g>
	<path class="st3" d="M1215.8,1515.9c0,0-12.7-271.2,170.7-266.1s94.4,241.5,94.4,241.5"/>
	<path class="st4" d="M1215.8,1520.3c-2.3,0-4.3-1.8-4.4-4.2c0-0.4-1.7-38.9,5.6-86c4.3-27.7,10.9-53,19.5-75.1
		c10.8-27.8,25-50.8,42.1-68.2c28.2-28.7,64.6-42.7,108.1-41.5c45.8,1.3,79.1,16.9,99,46.5c47.6,70.9,1.5,195.7-0.5,201
		c-0.9,2.3-3.4,3.4-5.7,2.6c-2.3-0.9-3.4-3.4-2.6-5.7c0.5-1.3,46.5-125.9,1.4-193c-8.6-12.7-20-22.7-34.1-29.7
		c-15.8-7.9-35.2-12.2-57.8-12.8c-40.9-1.2-75.1,11.9-101.5,38.8c-70.8,72.1-64.8,221.2-64.7,222.6c0.1,2.4-1.8,4.5-4.2,4.6
		C1215.9,1520.3,1215.9,1520.3,1215.8,1520.3L1215.8,1520.3z"/>
</g>
<g>
	<path class="st3" d="M656,1670.6c0,0-115.7-211.8,35.4-277.5c172.2-74.9,242.9,221,242.9,221"/>
	<path class="st4" d="M656,1675.1c-1.6,0-3.1-0.8-3.9-2.3c-0.7-1.2-16.4-30.3-28.8-70.6c-11.4-37.4-21.8-91.7-6-137.9
		c11.7-34.2,36-59.6,72.3-75.4c38.5-16.8,75.2-16.7,109,0.2c40.9,20.4,76.9,64.4,107,130.6c22.3,49,32.9,92.8,33,93.2
		c0.6,2.4-0.9,4.8-3.3,5.4c-2.4,0.6-4.8-0.9-5.4-3.3c-0.4-1.7-42-171.4-135.3-218c-31.4-15.6-65.5-15.6-101.5,0
		c-33.8,14.7-56.5,38.3-67.4,70.1c-28.9,84.3,33.5,200.1,34.1,201.2c1.2,2.2,0.4,4.9-1.8,6.1C657.4,1674.9,656.7,1675.1,656,1675.1
		L656,1675.1z"/>
</g>
<g>
	<path class="st3" d="M1169.1,613.6l19.7,303.3c0,0,109.7,15.1,138.4,83.9c28.7,68.8-123.1,515.3-109.3,542.1
		c13.7,26.8-102.2,22.8-135.8,22.3l90.3-475.5"/>
	<path class="st4" d="M1121.2,1570.2c-10.5,0-21.4-0.1-32.3-0.4c-2.6-0.1-4.9-0.1-6.9-0.1l-5.3-0.1l91.3-480.8
		c0.5-2.4,2.8-4,5.2-3.6c2.4,0.5,4,2.8,3.6,5.2l-89.3,470.3c0.5,0,1.1,0,1.6,0c17.6,0.3,47.1,0.9,73.4-0.7
		c41.5-2.5,49.9-9,51.6-11.7c0.3-0.5,0.9-1.4-0.2-3.5c-6-11.7,9.8-71.6,40.4-185.5c36-133.8,85.4-317,68.8-356.9
		c-27.4-65.6-133.8-81.1-134.9-81.2l-3.6-0.5l-0.2-3.6l-19.7-303.3c-0.2-2.5,1.7-4.6,4.2-4.8c2.4-0.2,4.6,1.7,4.8,4.2l19.5,299.8
		c8.5,1.5,30.9,5.9,55.9,15.9c41.7,16.6,70.2,40.9,82.4,70.2c16.5,39.5-21.2,187.6-68.4,362.7c-21.4,79.4-45.6,169.4-41.1,179.1
		c2.8,5.5,1.4,9.7-0.2,12.3C1213.1,1567,1171,1570.1,1121.2,1570.2L1121.2,1570.2z"/>
</g>
<g>
	<path class="st4" d="M658.3,1646.3c0,0,61.2-90.8,198.1-37.1"/>
	<path class="st4" d="M658.3,1650.7c-0.9,0-1.7-0.2-2.5-0.8c-2-1.4-2.6-4.2-1.2-6.2c0.7-1,16.4-23.9,49.5-40.2
		c55.1-27.2,114.1-14.2,154,1.4c2.3,0.9,3.4,3.5,2.5,5.8c-0.9,2.3-3.5,3.4-5.8,2.5c-54.7-21.5-105.5-22.1-146.7-1.7
		c-31,15.3-45.9,37-46,37.2C661.1,1650.1,659.7,1650.7,658.3,1650.7L658.3,1650.7z"/>
</g>
<g>
	<path class="st4" d="M1351.1,1476.1c0,0,107.9-142.7,189.4-68.8"/>
	<path class="st4" d="M1351.1,1480.6c-0.9,0-1.9-0.3-2.7-0.9c-2-1.5-2.4-4.3-0.9-6.3c0.7-0.9,16.3-21.5,40.4-43.1
		c32.6-29.4,63.6-45.6,92-48.3c23.6-2.2,45,5.2,63.6,22c1.8,1.7,2,4.5,0.3,6.3c-1.7,1.8-4.5,2-6.3,0.3
		c-16.6-15.1-35.7-21.7-56.8-19.8c-63.4,5.9-125.5,87.1-126.1,87.9C1353.7,1480,1352.4,1480.6,1351.1,1480.6L1351.1,1480.6z"/>
</g>
<g>
	<polyline class="st3" points="854.2,415 1168.7,403.2 1323.5,430.4 1369.2,489.7 	"/>
	<path class="st4" d="M1369.2,494.1c-1.3,0-2.7-0.6-3.5-1.8l-44.6-57.9l-152.6-26.8l-314,11.8c-2.4,0.1-4.5-1.8-4.6-4.3
		c-0.1-2.5,1.8-4.5,4.3-4.6l315-11.8l0.5,0.1l156.5,27.4l46.7,60.7c1.5,1.9,1.1,4.8-0.8,6.3C1371.1,493.8,1370.1,494.1,1369.2,494.1
		L1369.2,494.1z"/>
</g>
<g>
	<path class="st4" d="M1471.3,752.2c-3.7,59.4-111.5,164.7-204,179.6c-55.9,9-134.4-58.1-134.4-58.1c4-40.3,54.1-123,103.9-170.6
		c52.4-50.1,160.7-57.7,160.7-57.7C1428.4,665.1,1475.1,691.1,1471.3,752.2L1471.3,752.2z"/>
	<path class="st4" d="M1256.4,937.1c-22.2,0-48.8-9.1-79.5-27.1c-26.6-15.7-46-32.2-46.9-32.9l-1.8-1.5l0.2-2.3
		c4.1-41.2,55.2-125.5,105.2-173.4c22.3-21.3,56.6-37.7,102-48.8c33.6-8.2,60.4-10.1,61.5-10.2l1.5-0.1l1.3,0.8
		c1.7,1.1,3.4,2.2,5.1,3.3c31.4,19.9,74.4,47.2,70.7,107.7c-1.8,29.7-28.7,71.6-70.1,109.5c-44,40.2-94.1,67.2-137.6,74.2
		C1264.3,936.8,1260.4,937.1,1256.4,937.1L1256.4,937.1z M1137.7,871.8c11.1,9.1,71.3,56.4,118.8,56.4c3.4,0,6.8-0.3,10.1-0.8
		c41.8-6.8,90.3-33,133-72c39.8-36.3,65.5-76,67.2-103.4l0,0c3.4-55.1-35.4-79.8-66.5-99.6c-1.3-0.8-2.6-1.7-3.9-2.5
		c-13,1.1-109.2,11.1-156.5,56.4C1192,752.1,1143.2,831.4,1137.7,871.8L1137.7,871.8z"/>
</g>
<g>
	<path class="st3" d="M843.4,670.7c0,0,10.3,112.4,61.9,162.3c51.6,49.9,227.6,40.7,227.6,40.7c4-40.3,54.1-123,103.9-170.6
		c52.4-50.1,160.7-57.7,160.7-57.7s17.8-96.9-28.4-155.6L1236,403.2l-471.4,86.4"/>
	<path class="st4" d="M1099.6,878.8c-54.2,0-158.5-5.1-197.4-42.7c-22-21.2-39.3-55.5-51.5-101.9c-9-34.3-11.6-62-11.7-63.2
		c-0.2-2.4,1.6-4.6,4-4.9c2.5-0.2,4.6,1.6,4.9,4c0.1,1.1,10.8,111.4,60.6,159.5c45.5,44,195,40.6,220.6,39.6
		c6.7-42.5,56.2-123.1,104.7-169.6c22.3-21.3,56.6-37.7,102-48.8c26.9-6.6,49.5-9.1,57.9-9.9c2.5-17.3,11.5-97.7-27.6-148.1
		l-131.1-85.1L765.4,494c-2.4,0.4-4.8-1.2-5.2-3.6c-0.4-2.4,1.2-4.8,3.6-5.2l473.2-86.8l135.3,87.8l0.5,0.6
		c13.6,17.3,30.2,49,32.5,102.4c1.3,31.7-3,55.8-3.2,56.8l-0.6,3.4l-3.4,0.3c-1.1,0.1-107.4,8.1-158,56.5
		c-48.8,46.7-98.6,128.3-102.5,167.9l-0.4,3.8l-3.8,0.2C1131.3,878.2,1118.5,878.8,1099.6,878.8L1099.6,878.8z"/>
</g>
<polyline class="st1" points="827.5,638.8 784.5,578.4 844.8,562.8 "/>
<g>
	<path class="st1" d="M781.8,609.5c106.8-40.8,75.1-95.5,92.2-81.2c109.3,83.3,85.6,147.3,74.7,165.1s64.2-27.4,51.5-86
		c-12.7-58.6-7-104,0-93.1c14.4,20.1,32.2,16.5,91.4,31.8c59.2,15.3,68.9,63.1,78.5,79c9.6,15.8-17.1-102.3-7.7-91.9
		c14.2,17.4,69.5,31.2,109.4,68.3c17.6,21.8,3.9-30.6-11.6-61.3c-15.5-30.6-8.1-76,0-71.9c105.6,79.9,225.7-4.4,199,1.2
		c-26.7,5.6-66.6-42.2-74.6-53.7c-8.1-11.5-13.7-31.5-45.3-46.9l-136.6-90.5c-105.2-50.2-115.2-37-243.6-24.3
		c-52.8,5.2-75.3,19.9-144.9,72.6l-5.9-10.5c0,0-69.9,60.5-90.9,122.6s-41,90.1-140.6,150.7c-14.9,5.7,35.5,55.7,121.7,16.6
		c11.2-11.8-12.8,144.7-178.5,175.5c-32.7,7.5,99.5,79.1,153.2,29.1c13.7-13.2,16.6,151.3-110.7,188.4c-49,15.7,158.6,40,235.5-75.6
		c6-10.9,11,69.1-16.6,104.8c-27.5,35.7,83.7-19.4,112.2-132.1"/>
	<path class="st2" d="M780.1,1043.2c-3.8,0-5.5-1.9-6.2-3.1c-2.5-4.3,1-9.9,4.4-14.2c20.2-26.2,22-77.5,19.7-95
		c-33.8,46.8-87.3,67.8-126.9,77.2c-50.9,12.1-94.4,9.3-109.8,4.8c-4.3-1.3-10.1-3.6-10.1-8.6c-0.1-5.6,7.4-8,10.2-8.9
		c68.6-20,95.5-77.7,105.5-110.3c10.4-33.9,9.6-61.6,7.2-69.6c-37.5,32.1-104.3,11.6-134.9-3.9c-11.1-5.6-29.5-16.6-28.3-26.4
		c0.3-2.1,1.7-5.9,8.2-7.4c85.4-15.9,130.7-64.7,153.7-102.9c17.2-28.6,23.4-53.9,24-63.5c-24.5,10.6-48.1,15.1-70.3,13.3
		c-23.9-1.9-38.5-10.4-45-15.3c-7.9-5.9-12-12.2-11.3-17.4c0.4-2.7,2.1-4.9,4.7-6.1c101.7-62,118.8-90,138.6-148.4
		c8.9-26.3,27.1-55.2,54.1-86c20-22.8,37.8-38.2,38-38.4l3.8-3.3l6.1,10.8c65-49.2,89.2-65.3,143.2-70.6c20.7-2.1,38.2-4.1,53.7-5.9
		c81-9.5,102.7-12,192,30.6l0.5,0.3l136.4,90.3c26.2,12.8,35.3,28.7,42,40.4c1.6,2.8,3.1,5.4,4.7,7.6c10.9,15.6,47.8,56.8,70.4,52.1
		c4.2-0.9,7,0,8.2,2.5c2,4.2-2.6,8-4.6,9.6c-10.7,8.7-40,23.3-77,27.9c-31.9,3.9-79.4,1.3-125.6-32.8c-4.1,6.5-8.6,39.8,4.5,65.6
		c5.9,11.8,12.1,27.8,16.1,41.8c7.3,25.7,3.1,28.3,1.1,29.7c-4.9,3.2-9.9-2.8-12.2-5.6c-22.1-20.5-49.2-33.9-71-44.7
		c-13.9-6.9-25.6-12.6-33.2-18.7c0.8,9.9,3.9,28.3,6,41.5c1.8,11.1,3.6,21.7,4.6,29.8c1.7,12.8,1.6,16.7-2.2,18.1
		c-1.4,0.5-4,0.8-6.4-3.1c-1.9-3.1-3.7-7.1-5.8-11.8c-8.9-19.9-23.7-53.3-70.3-65.3c-17.5-4.5-31.5-7.4-42.7-9.7
		c-25.2-5.2-38.5-8-49.2-21.3c-2.8,10.5-3.9,44.4,5.5,87.5c10,46.2-31.5,84-47.7,92.5c-2.2,1.2-8.2,4.3-11.5,0.7
		c-1.3-1.4-2.4-4.1,0.3-8.4c4.3-7,13.6-26.4,7.2-55c-7.7-34.4-34.9-69.7-80.9-104.8l-0.1-0.1c-0.1-0.1-0.2-0.2-0.3-0.3
		c-0.2,0.8-0.4,1.7-0.6,2.5c-3.6,15.2-11.9,50.9-87.2,79.7c-2.1,0.8-4.4-0.3-5.2-2.3c-0.8-2.1,0.3-4.4,2.3-5.2
		c71.3-27.2,79-59.9,82.2-73.9c1.1-4.9,2-8.4,5.5-9.6c3.1-1,5.9,0.8,8.4,2.9c47.5,36.3,75.8,73.1,83.8,109.4
		c5.9,26.4-0.5,45.9-5.5,56.1c6.5-4,16.8-12.3,25.8-24.2c10-13.2,20.8-34,15.6-58.2c-5-23-7.7-46.6-7.6-66.5
		c0.1-29.7,5.7-32,7.5-32.7c1-0.4,4.6-1.4,7.5,3c9.2,12.7,20,15,46,20.3c11.3,2.3,25.3,5.2,43.1,9.8c47.3,12.2,64.1,44.3,73.9,65.8
		c-1.1-7.7-2.6-16.6-3.8-24.3c-7.9-48-7.7-52.7-3.2-54.8c0.8-0.4,3.4-1.3,6,1.5l0.1,0.2c5.6,6.9,19.6,13.8,35.8,21.8
		c22.4,11,50.2,24.8,73.2,46.2l0.4,0.4c0.4,0.5,0.7,0.9,1,1.2c-0.9-10.4-8.9-37.3-19.4-58.1c-14.3-28.4-10.4-67.7-2.3-75.8
		c2.3-2.3,5.1-2.8,7.7-1.5l0.6,0.4c49.7,37.6,101.3,37.1,135.8,30.1c26.3-5.4,45.7-15,54.9-21.1c-32-1.6-71.6-55.3-72-55.9
		c-1.8-2.5-3.4-5.3-5.1-8.3c-6.5-11.4-14.6-25.6-38.7-37.3l-0.5-0.3l-136.4-90.3c-87-41.5-108.3-39-187.3-29.7
		c-15.5,1.8-33.1,3.9-53.8,5.9c-53,5.3-74.9,20.3-142.8,71.8l-3.7,2.8l-5.7-10.2c-14.6,13.5-68.3,65.3-86,117.5
		c-21.8,64.6-43.2,92.5-142.3,152.9l-0.7,0.3c0.1,1.2,1.9,4.8,7.7,9.3c18.9,14.5,59.1,23.1,110.3,0.1c2.4-1.9,4.7-1.1,5.4-0.8
		c3.1,1.5,3.9,5.4,2.9,13.4c-2.1,16-13.3,52.6-41.9,88.2c-34.3,42.8-83.4,71.2-141.8,82.1c-1,0.2-1.6,0.5-1.8,0.7
		c0.6,3.2,11.3,13.1,35.1,23.2c58.1,24.7,99,14.5,116.4-1.7c1.9-1.9,4.4-2.4,6.7-1.3c7.8,3.7,6.8,26.8,6,36.6
		c-1.1,14.3-6.1,51.7-27.8,88.2c-21.5,36.2-52.4,60.4-91.7,71.8c-1.2,0.4-2.2,0.8-2.9,1.1c6.4,2.7,26.7,6.1,59.8,3.6
		c110.7-8.5,158.5-63.1,174-86.3c1.5-2.6,3.6-3,4.7-2.9c1.1,0,3.3,0.5,4.7,3.5c3,6.4,3.7,26.8,1.6,46.4c-2,18.8-7.3,44.9-20.9,62.4
		c-1.4,1.8-2.2,3.1-2.7,4c6.8-1.7,25.5-11.9,47.7-34.6c20.6-21,47.7-56.2,60-105c0.5-2.2,2.8-3.5,4.9-2.9c2.2,0.6,3.5,2.8,2.9,4.9
		c-22.2,88.2-94.6,142.9-115.6,145.9C781.3,1043.2,780.7,1043.2,780.1,1043.2L780.1,1043.2z"/>
</g>
<g id="Hair">
	<path class="st1" d="M795.2,769.8c66.2-52.4,71.9-99.7,44.4-191.4"/>
	<path class="st2" d="M795.2,773.9c-1.2,0-2.4-0.5-3.2-1.5c-1.4-1.8-1.1-4.3,0.7-5.7c32.7-25.9,49.9-50.1,55.9-78.6
		c5.7-27.1,1.9-59.5-12.8-108.5c-0.6-2.1,0.6-4.4,2.7-5.1c2.1-0.6,4.4,0.6,5.1,2.7c15.1,50.4,19,84,13,112.5
		c-6.4,30.5-24.5,56.2-58.8,83.3C796.9,773.6,796,773.9,795.2,773.9L795.2,773.9z"/>
</g>
<path class="st3" d="M815.7,489.7c31.4-7.3,37.3-33.9,37.3-33.9l-49.4-180"/>
<g id="L_ear">
	<path class="st3" d="M815.7,489.7c-52.6-52.7-54.9-216.2-17.6-247.2c2.8-2.3,5.9-3.9,9.3-5"/>
	<path class="st4" d="M815.7,494.1c-1.1,0-2.3-0.4-3.2-1.3c-33.9-34-46.5-110.7-43.9-167.5c2-42.4,11.6-73.9,26.5-86.2
		c3.1-2.6,6.8-4.6,10.8-5.8c2.4-0.7,4.9,0.6,5.6,2.9c0.8,2.4-0.6,4.9-2.9,5.6c-2.9,0.9-5.6,2.3-7.8,4.2
		c-12.8,10.6-21.5,40.4-23.3,79.8c-2.6,55,9.3,128.7,41.3,160.8c1.8,1.8,1.7,4.6,0,6.3C818,493.7,816.9,494.1,815.7,494.1
		L815.7,494.1z"/>
</g>
<g id="L_ear-2">
	<path class="st4" d="M808.9,237c43.8-11.4,134.5,63.6,155.9,117.3c0,0-15.8,9.6-31.8,4.3c-16-5.3,0,16.7-2,26.7
		c-2,10-19.3,18.7-32.7,14s-4.7,16.7-13.3,31.3c-8.7,14.7-30.8,22.6-30.8,22.6s-82.1-141.9-46-216L808.9,237L808.9,237z"/>
	<path class="st4" d="M852.2,458.7l-1.9-3.2c-0.2-0.4-20.9-36.3-36.9-81c-21.7-60.6-24.8-107.4-9.3-139.2l0.9-1.8l2.7-0.8
		c21.6-5.6,54.4,7.1,90.2,35c33.2,25.9,60.4,58.4,71,84.9l1.4,3.5l-3.2,2c-0.7,0.4-17.8,10.6-35.5,4.7c-0.4-0.1-0.8-0.3-1.2-0.3
		c0.4,1.9,1.3,4.8,2.1,6.9c1.9,5.8,3.9,11.7,2.9,16.7c-1.1,5.4-5.4,10.6-11.7,14.2c-8.4,4.8-18.6,6-26.8,3.1
		c-0.8-0.3-1.3-0.4-1.6-0.4c-0.6,1.3-0.9,5.3-1.1,7.9c-0.5,6.5-1.1,14.7-5.3,21.9c-9.4,15.9-32.2,24.2-33.1,24.6L852.2,458.7
		L852.2,458.7z M811.3,241.1c-29.5,65.3,33,184.8,44.9,206.5c6.2-2.8,19.2-9.5,25-19.3c3.2-5.4,3.6-12.1,4.1-18
		c0.5-6.5,0.9-12.1,5.1-14.9c2.5-1.6,5.7-1.8,9.5-0.4c5.8,2,13.2,1.1,19.4-2.4c4.1-2.3,6.8-5.4,7.4-8.2c0.5-2.6-1.2-7.9-2.6-12.1
		c-2.3-7-4.3-13.1-0.5-16.9c3.5-3.5,9.1-1.6,10.9-1c9.7,3.2,19.6,0.1,24.6-2.1C936,301.3,851.9,232.4,811.3,241.1L811.3,241.1z"/>
</g>
<g>
	<g>
		<path class="st3" d="M1169.8,390.8c-43.3,23-116.7,20.3-156.9-5.6c-7.9-8.3,63.9-350.9,80.5-349.8
			C1109.9,36.6,1179.6,380.7,1169.8,390.8L1169.8,390.8z"/>
		<path class="st5" d="M1097.5,410.4c-32,0-64.4-7.4-86.8-21.8l-0.4-0.3l-0.3-0.4c-1.9-2-4-4.2,4.4-53.4
			c4.9-28.7,12.3-66.4,20.8-106.3c15.8-73.8,36.9-161.8,49.1-187.7c2.4-5,5.1-9.6,9.4-9.3c3.9,0.3,6.9,4.3,11.1,15.5
			c13.2,34.6,33.5,125.1,46.9,192.1c7.9,39.3,14.4,75.8,18.5,102.7c7.1,47.2,4.5,49.9,2.6,51.9l-0.4,0.4l-0.6,0.3
			C1151.4,405.1,1124.5,410.4,1097.5,410.4L1097.5,410.4z M1016.3,382.6c39.1,24.2,108.4,26.7,150.3,5.3
			c1.7-10.5-8.6-78.9-28.8-175.9c-20.8-99.9-37.6-159.7-44.6-171.1c-6.7,10.8-23.1,65.8-45.7,168.7
			C1027.3,301.6,1015.4,371.8,1016.3,382.6L1016.3,382.6z M1169.8,390.8L1169.8,390.8L1169.8,390.8z M1166.4,388.7L1166.4,388.7z
			 M1016.4,383.5L1016.4,383.5L1016.4,383.5z"/>
	</g>
	<g>
		<g>
			<path class="st3" d="M1012.2,381.4c0,0,99.6-12.7,152.2-49.7"/>
			<path class="st2" d="M1012.2,385.4c-2,0-3.8-1.5-4-3.5c-0.3-2.2,1.3-4.3,3.5-4.5c0.3,0,25.1-3.2,56-10.9
				c40.6-10.1,73.3-23.3,94.3-38.1c1.8-1.3,4.4-0.9,5.6,1c1.3,1.8,0.9,4.4-1,5.6c-52.8,37.2-149.9,49.9-154,50.4
				C1012.5,385.4,1012.4,385.4,1012.2,385.4L1012.2,385.4z"/>
		</g>
		<g>
			<path class="st3" d="M1022.3,316.2c0,0,98.6-14.8,128.4-54.5"/>
			<path class="st2" d="M1022.3,320.3c-2,0-3.7-1.4-4-3.4c-0.3-2.2,1.2-4.3,3.4-4.6c1-0.1,97.3-15.1,125.8-52.9
				c1.3-1.8,3.9-2.1,5.7-0.8c1.8,1.3,2.1,3.9,0.8,5.7c-12.9,17.1-39,31.8-77.5,43.5c-28.3,8.7-53.3,12.5-53.6,12.5
				C1022.7,320.3,1022.5,320.3,1022.3,320.3L1022.3,320.3z"/>
		</g>
		<g>
			<path class="st3" d="M1035.2,261.7c0,0,60.2-14.7,101.6-56.3"/>
			<path class="st2" d="M1035.2,265.8c-1.8,0-3.5-1.2-3.9-3.1c-0.5-2.2,0.8-4.4,3-4.9c0.6-0.1,59.6-15,99.7-55.2
				c1.6-1.6,4.1-1.6,5.7,0c1.6,1.6,1.6,4.1,0,5.7c-41.7,41.9-101,56.8-103.5,57.4C1035.9,265.7,1035.5,265.8,1035.2,265.8
				L1035.2,265.8z"/>
		</g>
		<g>
			<path class="st3" d="M1044.2,205.4c0,0,46.9-13.5,85-51.6"/>
			<path class="st2" d="M1044.2,209.5c-1.8,0-3.4-1.2-3.9-2.9c-0.6-2.1,0.6-4.4,2.8-5c0.5-0.1,46.4-13.7,83.3-50.6
				c1.6-1.6,4.1-1.6,5.7,0s1.6,4.1,0,5.7c-38.4,38.5-84.8,52.1-86.8,52.7C1045,209.4,1044.6,209.5,1044.2,209.5L1044.2,209.5z"/>
		</g>
		<g>
			<path class="st3" d="M1058.5,150.6c0,0,37.8-14.5,57.7-43.5"/>
			<path class="st2" d="M1058.5,154.6c-1.6,0-3.2-1-3.8-2.6c-0.8-2.1,0.3-4.4,2.3-5.2c0.4-0.1,36.8-14.4,55.8-42
				c1.3-1.8,3.8-2.3,5.6-1.1c1.8,1.3,2.3,3.8,1.1,5.6c-20.4,29.8-58,44.4-59.6,45C1059.5,154.5,1059,154.6,1058.5,154.6
				L1058.5,154.6z"/>
		</g>
		<g>
			<path class="st3" d="M1069.6,103.1c0,0,27.9-16.2,38.7-32.2"/>
			<path class="st2" d="M1069.6,107.2c-1.4,0-2.8-0.7-3.5-2c-1.1-1.9-0.5-4.4,1.5-5.5c0.3-0.2,27.2-16,37.3-31
				c1.3-1.9,3.8-2.4,5.6-1.1c1.9,1.3,2.4,3.8,1.1,5.6c-11.1,16.6-38.8,32.8-40,33.5C1071,107,1070.3,107.2,1069.6,107.2
				L1069.6,107.2z"/>
		</g>
	</g>
	<path class="st4" d="M1097.5,410.8c-32.1,0-64.6-7.4-87-21.9l-0.5-0.3l-0.4-0.4c-2-2.1-4.1-4.4,4.3-53.8
		c4.9-28.7,12.3-66.4,20.8-106.3c15.8-73.8,36.9-161.9,49.1-187.8c2.4-5.1,5.3-9.8,9.8-9.5c4.1,0.3,7.1,4.4,11.5,15.8
		c13.2,34.6,33.5,125.1,46.9,192.1c7.9,39.3,14.4,75.8,18.5,102.8c7.2,47.4,4.6,50.1,2.5,52.2l-0.5,0.5l-0.6,0.3
		C1151.5,405.5,1124.6,410.8,1097.5,410.8L1097.5,410.8z M1016.7,382.3c39,24,107.8,26.4,149.5,5.3c1.5-11.1-8.7-79.3-28.8-175.5
		c-20.5-98.2-37.1-157.8-44.2-170.5c-6.9,12-23.1,66.9-45.3,168C1027.8,301.1,1015.9,370.9,1016.7,382.3L1016.7,382.3z
		 M1169.8,390.8L1169.8,390.8L1169.8,390.8z M1016.8,383.3L1016.8,383.3L1016.8,383.3z"/>
</g>
<g>
	<ellipse class="st3" cx="1369.8" cy="781.2" rx="4.1" ry="15.3"/>
	<path class="st3" d="M1369.8,800.4c-7.1,0-7.9-13.4-7.9-19.1s0.8-19.1,7.9-19.1c7.1,0,7.9,13.4,7.9,19.1S1376.9,800.4,1369.8,800.4
		z M1369.8,776c-0.2,1.5-0.3,3.3-0.3,5.3s0.1,3.7,0.3,5.3c0.2-1.5,0.3-3.3,0.3-5.3S1369.9,777.5,1369.8,776z"/>
</g>
<g>
	<ellipse class="st3" cx="1407" cy="765.9" rx="3.2" ry="13.9"/>
	<path class="st3" d="M1407,784.2c-5.1,0-7.7-6.2-7.7-18.3c0-12.2,2.6-18.3,7.7-18.3s7.7,6.2,7.7,18.3
		C1414.6,778.1,1412.1,784.2,1407,784.2z"/>
</g>
<g>
	<circle class="st3" cx="1194.5" cy="600.1" r="10.9"/>
	<path class="st3" d="M1194.5,615.5c-8.5,0-15.4-6.9-15.4-15.4c0-8.5,6.9-15.4,15.4-15.4s15.4,6.9,15.4,15.4
		C1209.9,608.6,1203,615.5,1194.5,615.5z M1194.5,593.7c-3.6,0-6.4,2.9-6.4,6.4c0,3.6,2.9,6.4,6.4,6.4s6.4-2.9,6.4-6.4
		C1201,596.6,1198.1,593.7,1194.5,593.7z"/>
</g>
<g>
	<circle class="st3" cx="1160.1" cy="673.2" r="5.4"/>
	<path class="st3" d="M1160.1,683.1c-5.4,0-9.9-4.4-9.9-9.9c0-5.4,4.4-9.9,9.9-9.9c5.4,0,9.9,4.4,9.9,9.9
		C1170,678.6,1165.6,683.1,1160.1,683.1z M1160.1,672.3c-0.5,0-0.9,0.4-0.9,0.9c0,0.5,0.4,0.9,0.9,0.9s0.9-0.4,0.9-0.9
		C1161.1,672.7,1160.6,672.3,1160.1,672.3z"/>
</g>
<g>
	<circle class="st3" cx="1339.6" cy="550.5" r="8.8"/>
	<path class="st3" d="M1339.6,564.3c-7.6,0-13.8-6.2-13.8-13.8c0-7.6,6.2-13.8,13.8-13.8c7.6,0,13.8,6.2,13.8,13.8
		C1353.3,558.1,1347.1,564.3,1339.6,564.3z M1339.6,546.6c-2.1,0-3.9,1.8-3.9,3.9s1.8,3.9,3.9,3.9s3.9-1.8,3.9-3.9
		S1341.7,546.6,1339.6,546.6z"/>
</g>
<g>
	<circle class="st3" cx="1309.8" cy="614.1" r="4.9"/>
	<path class="st3" d="M1309.8,623.4c-5.1,0-9.3-4.2-9.3-9.3c0-5.1,4.2-9.3,9.3-9.3c5.1,0,9.3,4.2,9.3,9.3
		C1319.1,619.3,1314.9,623.4,1309.8,623.4z M1309.8,613.7c-0.2,0-0.4,0.2-0.4,0.4c0,0.4,0.8,0.4,0.8,0
		C1310.2,613.9,1310,613.7,1309.8,613.7L1309.8,613.7z"/>
</g>
<path class="st3" d="M1181.1,309.3c0,0,20.3,26.5,46.8,24.8s27.1-66.1,27.1-66.1"/>
<g>
	<path class="st3" d="M1179.6,307.1c9.6-41,73.8-129.6,102-129.5c3.5,0,7.1,1.7,10.7,4.9l-59.2,149.1"/>
	<path class="st4" d="M1233.1,336.1c-0.6,0-1.1-0.1-1.6-0.3c-2.3-0.9-3.4-3.5-2.5-5.8l58-146c-1.9-1.3-3.7-1.9-5.4-1.9h0
		c-11,0-32.3,18.7-54.4,47.6c-21.5,28.2-38.8,59.7-43.2,78.4c-0.6,2.4-3,3.9-5.4,3.3c-2.4-0.6-3.9-3-3.3-5.4
		c9.5-40.7,74.8-132.9,106.3-132.9h0.1c4.6,0,9.2,2.1,13.7,6l2.4,2.1l-60.4,152C1236.6,335,1234.9,336.1,1233.1,336.1L1233.1,336.1z
		"/>
</g>
<g>
	<path class="st4" d="M1293.6,183.7c24,23.4,47.7,111.2,46,195c-7.5-0.9-17.1-18.4-24.1-13.2c-7,5.3-33.4,0-41.6-5.3
		c-8.2-5.3-0.6-31.6-14.2-22.8c-13.6,8.8-31.7-5.3-31.7-5.3s21.5-137.7,60.9-147.8L1293.6,183.7L1293.6,183.7z"/>
	<path class="st4" d="M1343.9,383.7l-4.9-0.6c-4.6-0.6-8.7-4.4-12.7-8.2c-1.9-1.8-7.1-6.7-8.2-5.9c-9.2,6.9-37.7,0.7-46.7-5.1
		c-5.2-3.4-6-10.5-6.7-16.9c-0.2-2.1-0.6-5.3-1.1-6.8c-0.4,0.2-0.9,0.4-1.5,0.9c-16.1,10.4-36.1-4.8-36.9-5.5l-2.1-1.6l0.4-2.6
		c0.1-0.3,5.5-35.1,15.8-70.6c14.1-49,30.4-76.2,48.4-80.8l0.5-0.1l7-0.9l1.6,1.5c26.8,26.2,49,118.8,47.3,198.3L1343.9,383.7
		L1343.9,383.7z M1318.2,360c5.2,0,10.3,4.7,14.2,8.4c0.9,0.8,1.8,1.7,2.8,2.5c0.1-36.8-4.6-76-13.3-111.4
		c-8.2-33.2-19.3-59.4-30-71.2l-2.3,0.3c-29.1,8-50.4,102.1-56.9,141.3c4.7,3,16,9,24.5,3.6c1.5-0.9,5.9-3.8,10.3-1.8
		c4.7,2.3,5.4,8.1,6.1,14.3c0.4,3.5,1,9.3,2.7,10.3c8.1,5.2,32,8.8,36.5,5.4C1314.6,360.6,1316.4,360,1318.2,360L1318.2,360z"/>
</g>
<g>
	<path class="st2" d="M1061.7,578.4c0,0,93.1-5,180.6-24.3c88.5-19.5,161.3-51.1,161.3-51.1s37.4,119.8-14.2,134.6
		c-68.9,19.8-87-32.9-102.1-85.6l-33.9,9.3c0,0,35.4,122.7-57.7,141.7C1076.9,727.4,1066.9,628.1,1061.7,578.4L1061.7,578.4z"/>
	<path class="st2" d="M1161.4,709.5c-22.4,0-41.3-5.5-56.3-16.5c-37.1-27.2-42.7-81.6-46.1-114l-0.3-3.1l2.8-0.2
		c0.9-0.1,93.9-5.3,180.1-24.3c87.2-19.2,160-50.6,160.8-50.9l2.7-1.2l0.9,2.8c0.1,0.2,6.4,20.8,10.3,45.7c5.2,33.7,3.5,58.8-5,74.7
		c-4.9,9.1-12.1,15-21.3,17.7c-23.2,6.7-42,5.8-57.5-2.8c-25.4-14.1-37-46.7-47.2-82.1l-28.8,7.9c3.3,12.8,15.5,68.5-8,107.4
		c-11.1,18.5-28.8,30.3-52.4,35.1C1183.7,708.3,1172.1,709.5,1161.4,709.5L1161.4,709.5z M1064.6,580.9
		c3.3,31.8,9.4,82.7,43.7,107.8c20.9,15.3,50.1,19.3,86.7,11.8c22.1-4.5,38.5-15.5,48.9-32.6c13-21.4,14.1-49,12.8-68.3
		c-1.4-21.1-6-37.3-6.1-37.5l-0.8-2.6l39.1-10.7l0.7,2.6c10.1,35.3,21.1,68,45.4,81.5c14.1,7.8,31.6,8.6,53.4,2.3
		c7.8-2.2,13.9-7.3,18.1-15.1c17.1-31.7-0.6-98.8-4.8-113.4c-14.2,5.9-80.9,32.8-159,50C1164.6,574,1080.9,579.9,1064.6,580.9z"/>
</g>
<g>
	<path class="st4" d="M379,1335.6c8.3-1.2,37.5-15.7,78.1-35.1c-39.5-49.9-44.7-111.8-44.7-113.3c-49.3,31.9-74.1,50.2-77.1,58.5
		C325.2,1274,345.8,1340.5,379,1335.6L379,1335.6z"/>
	<path class="st4" d="M375.5,1340.3c-9.6,0-18.8-5-26.7-14.7c-16.8-20.5-25.3-60.1-17.7-81.5c2.8-7.8,17-20.6,78.8-60.7l7.2-4.7
		l-0.3,8.4c0.2,2.2,5.6,62.3,43.7,110.5l3.5,4.4l-5,2.4c-5.8,2.8-11.4,5.4-16.7,8c-36,17.3-55.2,26.4-62.7,27.5l0,0
		C378.3,1340.2,376.9,1340.3,375.5,1340.3L375.5,1340.3z M379,1335.6L379,1335.6L379,1335.6z M408.8,1194.8
		c-22.6,14.7-66.1,43.4-69.3,52.3c-6.7,18.6,1.3,54.7,16.2,72.8c7.1,8.6,14.7,12.4,22.6,11.2c6.5-0.9,30.1-12.3,60.1-26.7
		c3.8-1.8,7.7-3.7,11.7-5.6C420.3,1258.7,411.3,1212.8,408.8,1194.8z"/>
</g>
<g id="Layer_4">
	<path class="st2" d="M1702.2,1620.7c134.7-83.7,155.8-157.9,134.1-278c-14.8-82.1-53.7-158.4-86.4-144.7
		c-23.8,9.9,1.3,31.6-115.5,145.9s-1147.1,391.8-1330,309.1c-45.2-20.4-98.8-75.9-118.5-87.4c-42.6-24.9-39,42.8-18.8,146.8
		c22,113.5,81.6,169.4,189.2,197.4C557.3,1962.3,1617.8,1673.1,1702.2,1620.7L1702.2,1620.7z"/>
	<g>
		<path class="st4" d="M1225.1,1489.7c0,0-11.8,64.6-22,78.7c-16.3,19.5-94,35-121-3.2c-7.2-13.6,17-89.6,17-89.6
			S1156.6,1502.6,1225.1,1489.7L1225.1,1489.7z"/>
		<path class="st4" d="M1138.9,1593.1c-1.6,0-3.2,0-4.8-0.1c-32.1-1.3-48-14.5-55.6-25.3l-0.3-0.5c-7.7-14.5,12.6-80.1,16.7-93
			l1.6-4.8l4.6,2.2c0.6,0.3,57.1,26.2,123.3,13.8l6.4-1.2l-1.2,6.4c-1.2,6.7-12.3,66-22.8,80.5l-0.2,0.3
			C1196.2,1583.7,1166.5,1593.2,1138.9,1593.1L1138.9,1593.1z M1085.9,1562.9c11.8,16.4,32.8,20.6,48.5,21.2
			c28.2,1.1,56.9-8.8,65.2-18.5c7.1-10,15.9-49.7,20-70.4c-55.9,8.7-103-7.6-117.7-13.6C1091.1,1516.6,1082.4,1555.2,1085.9,1562.9
			L1085.9,1562.9z"/>
	</g>
</g>
<g id="Layer_5">
	<g>
		<g>
			<path class="st4" d="M504.1,1935.7c3.9,31.4,48.6,51.7,99.9,45.4c51.3-6.3,89.8-36.9,85.9-68.3l-5.2-42.2l-185.9,22.9
				L504.1,1935.7L504.1,1935.7z"/>
			<path class="st4" d="M585.4,1986.6c-18.7,0-36.3-3.4-50.9-10.1c-20.3-9.2-32.7-23.6-34.8-40.3l-5.8-46.6l194.7-24l5.8,46.6
				c4.2,33.8-36.1,66.6-89.8,73.2C598.1,1986.2,591.7,1986.6,585.4,1986.6L585.4,1986.6z M503.9,1897.4l4.7,37.8
				c1.7,13.6,12.2,25.4,29.6,33.3c18.1,8.2,41.4,11.1,65.4,8.2c48.8-6,85.6-34.4,82.1-63.3l-4.7-37.8L503.9,1897.4L503.9,1897.4z"/>
		</g>
		<g>
			
				<ellipse transform="matrix(0.9925 -0.1224 0.1224 0.9925 -225.8719 86.6051)" class="st4" cx="592" cy="1881.9" rx="93.6" ry="57.2"/>
			<path class="st4" d="M580.5,1944.4c-45.4,0-82.3-20.7-86-50.4c-4.2-33.8,36.1-66.6,89.8-73.2c25.6-3.2,50.6,0,70.2,8.9
				c20.3,9.2,32.7,23.6,34.8,40.3l0,0c2.1,16.8-6.4,33.7-23.9,47.6c-16.9,13.4-40.3,22.5-65.9,25.7
				C593,1944,586.7,1944.4,580.5,1944.4L580.5,1944.4z M603.6,1828.5c-6,0-12,0.4-18.2,1.1c-48.8,6-85.6,34.4-82.1,63.3
				c3.6,28.9,46.2,47.5,95,41.5c24-3,45.8-11.4,61.4-23.8c15-11.9,22.3-25.9,20.6-39.5l0,0c-1.7-13.6-12.2-25.4-29.6-33.3
				C637.3,1831.7,620.9,1828.5,603.6,1828.5L603.6,1828.5z"/>
		</g>
	</g>
	<g>
		<g>
			<path class="st4" d="M474.3,1790.1c3.9,31.4,48.6,51.7,99.9,45.4c51.3-6.3,89.8-36.9,85.9-68.3L655,1725l-185.9,22.9
				L474.3,1790.1L474.3,1790.1z"/>
			<path class="st4" d="M555.5,1841.1c-18.7,0-36.3-3.4-50.9-10.1c-20.3-9.2-32.7-23.6-34.8-40.3l-5.8-46.6l194.7-24l5.8,46.6
				c4.2,33.8-36.1,66.6-89.8,73.2C568.3,1840.7,561.8,1841.1,555.5,1841.1L555.5,1841.1z M474.1,1751.8l4.7,37.8
				c1.7,13.6,12.2,25.4,29.6,33.3c18.1,8.2,41.4,11.1,65.4,8.2c48.8-6,85.6-34.4,82.1-63.3l-4.7-37.8L474.1,1751.8L474.1,1751.8z"/>
		</g>
		<g>
			
				<ellipse transform="matrix(0.9925 -0.1224 0.1224 0.9925 -208.2832 81.8562)" class="st4" cx="562.2" cy="1736.3" rx="93.6" ry="57.2"/>
			<path class="st4" d="M550.7,1798.9c-45.4,0-82.3-20.7-86-50.4c-4.2-33.8,36.1-66.6,89.8-73.2c25.6-3.2,50.6,0,70.2,8.9
				c20.3,9.2,32.7,23.6,34.8,40.3l0,0c2.1,16.8-6.4,33.7-23.9,47.6c-16.9,13.4-40.3,22.5-65.9,25.7
				C563.2,1798.5,556.9,1798.9,550.7,1798.9L550.7,1798.9z M573.7,1683c-6,0-12,0.4-18.2,1.1c-48.8,6-85.6,34.4-82.1,63.3
				c3.6,28.9,46.2,47.5,95,41.5c24-3,45.8-11.4,61.4-23.8c15-11.9,22.3-25.9,20.6-39.5l0,0c-1.7-13.6-12.2-25.4-29.6-33.3
				C607.4,1686.1,591.1,1683,573.7,1683L573.7,1683z"/>
		</g>
	</g>
	<g>
		<g>
			<path class="st4" d="M1501.1,1688.6c7.3,30.8,54,46,104.3,34c50.3-11.9,85.2-46.6,77.9-77.3l-9.8-41.4l-182.2,43.3L1501.1,1688.6
				z"/>
			<path class="st4" d="M1571.5,1731.2c-12.8,0-24.9-1.8-35.7-5.3c-21.2-6.9-35.1-19.8-39-36.2l-10.9-45.7l190.9-45.4l10.9,45.7
				c3.9,16.5-2.7,34.2-18.5,49.9c-15.3,15.2-37.5,26.8-62.7,32.8C1594.6,1729.8,1582.8,1731.2,1571.5,1731.2L1571.5,1731.2z
				 M1496.6,1650.6l8.8,37c3.2,13.3,14.9,23.9,33.1,29.8c18.9,6.2,42.3,6.5,65.9,0.9c23.5-5.6,44.3-16.4,58.4-30.4
				c13.6-13.5,19.3-28.2,16.1-41.5l-8.8-37L1496.6,1650.6L1496.6,1650.6z"/>
		</g>
		<g>
			
				<ellipse transform="matrix(0.9729 -0.2312 0.2312 0.9729 -332.9518 409.9858)" class="st4" cx="1582.5" cy="1625.3" rx="93.6" ry="57.2"/>
			<path class="st4" d="M1561.7,1689.8c-12.8,0-24.9-1.8-35.7-5.3c-21.2-6.9-35.1-19.8-39-36.2c-3.9-16.4,2.7-34.2,18.5-49.9
				c15.3-15.2,37.5-26.8,62.7-32.8s50.2-5.6,70.7,1.1c21.2,6.9,35.1,19.8,39,36.2c3.9,16.5-2.7,34.2-18.5,49.9
				c-15.3,15.2-37.5,26.8-62.7,32.8C1584.8,1688.4,1573,1689.8,1561.7,1689.8L1561.7,1689.8z M1603.1,1570.3
				c-10.6,0-21.8,1.3-32.9,4c-23.5,5.6-44.3,16.4-58.4,30.4c-13.6,13.5-19.3,28.2-16.1,41.5c3.2,13.3,14.9,23.9,33.1,29.8
				c18.9,6.2,42.3,6.5,65.9,0.9c23.5-5.6,44.3-16.4,58.4-30.4c13.6-13.5,19.3-28.2,16.1-41.5l0,0c-3.2-13.3-14.9-23.9-33.1-29.8
				C1626.1,1571.9,1614.9,1570.3,1603.1,1570.3L1603.1,1570.3z"/>
		</g>
	</g>
	<g>
		<g>
			<path class="st4" d="M1454.3,1544c7.3,30.8,54,46,104.3,34c50.3-11.9,85.2-46.6,77.9-77.3l-9.8-41.4l-182.2,43.3L1454.3,1544z"/>
			<path class="st4" d="M1524.7,1586.6c-12.8,0-24.9-1.8-35.7-5.3c-21.2-6.9-35.1-19.8-39-36.2l-10.9-45.7L1630,1454l10.9,45.7
				c3.9,16.5-2.7,34.2-18.5,49.9c-15.3,15.2-37.5,26.8-62.7,32.8C1547.9,1585.2,1536,1586.6,1524.7,1586.6L1524.7,1586.6z
				 M1458.7,1542.9c3.2,13.3,14.9,23.9,33.1,29.8c18.9,6.2,42.3,6.5,65.9,0.9c23.5-5.6,44.3-16.4,58.4-30.4
				c13.6-13.5,19.3-28.2,16.1-41.5l-8.8-37l-173.5,41.2L1458.7,1542.9L1458.7,1542.9z"/>
		</g>
		<g>
			
				<ellipse transform="matrix(0.9729 -0.2312 0.2312 0.9729 -300.7786 395.2513)" class="st4" cx="1535.7" cy="1480.7" rx="93.6" ry="57.2"/>
			<path class="st4" d="M1515.3,1545.1c-38.1,0-69.1-15.8-75.2-41.5c-3.9-16.5,2.7-34.2,18.5-49.9c15.3-15.2,37.5-26.8,62.7-32.8
				s50.2-5.6,70.7,1.1c21.2,6.9,35.1,19.8,39,36.2l0,0c7.9,33.1-28.6,70.2-81.2,82.7C1538,1543.8,1526.4,1545.1,1515.3,1545.1
				L1515.3,1545.1z M1556.3,1425.7c-10.6,0-21.8,1.3-32.9,4c-23.5,5.6-44.3,16.4-58.4,30.4c-13.6,13.5-19.3,28.2-16.1,41.5
				c6.7,28.3,51.1,42.1,99,30.7c47.8-11.4,81.3-43.6,74.6-71.9l0,0c-3.2-13.3-14.9-23.9-33.1-29.8
				C1579.3,1427.3,1568.1,1425.7,1556.3,1425.7z"/>
		</g>
	</g>
</g>
</svg>
