<?xml version="1.0" encoding="UTF-8"?>
<svg xmlns="http://www.w3.org/2000/svg" viewBox="0 0 2000 2000">
  <defs>
    <style>
      .cls-1 {
        stroke-width: 5.52px;
      }

      .cls-1, .cls-2, .cls-3, .cls-4, .cls-5 {
        fill: #fff;
      }

      .cls-1, .cls-3, .cls-6, .cls-4, .cls-5, .cls-7, .cls-8 {
        stroke-linecap: round;
        stroke-miterlimit: 10;
      }

      .cls-1, .cls-3, .cls-5 {
        stroke: #fff;
      }

      .cls-9 {
        fill: #f765a2;
      }

      .cls-10 {
        fill: #ec008c;
      }

      .cls-11, .cls-8 {
        fill: #ffa4b7;
      }

      .cls-12, .cls-6 {
        fill: #0b1355;
      }

      .cls-3 {
        stroke-width: 4.26px;
      }

      .cls-6, .cls-4, .cls-5, .cls-7 {
        stroke-width: 5px;
      }

      .cls-6, .cls-4, .cls-7 {
        stroke: #0b1355;
      }

      .cls-7 {
        fill: none;
      }

      .cls-8 {
        stroke: #f765a2;
        stroke-width: 4.54px;
      }
    </style>
  </defs>
  <g id="Layer_3" data-name="Layer 3">
    <g id="skateboard">
      <path class="cls-9" d="m1470.13,1518.88c54.48-6.06,90.07-65.33,88.27-77.18-1.57-10.35-13.9-8.62-15.75-5.16-20.29,38-36.07,57.84-74.42,65.4-38.35,7.56-714.4,14.16-764.41,0-37.58-10.64-54.13-27.4-74.42-65.4-1.85-3.46-14.18-5.19-15.75,5.16-1.8,11.85,30.66,66.46,88.27,77.18,70.23,13.07,713.73,6.06,768.21,0Z"/>
      <circle class="cls-12" cx="794.36" cy="1577.6" r="44.84"/>
      <circle class="cls-12" cx="1368.39" cy="1577.6" r="44.84"/>
    </g>
    <path class="cls-8" d="m957.23,1265.95s-39.91,7.7-61.14,0,18.01,20.12,10.11,21.75c-7.9,1.63-73.01,23.6-113.89,11.84-40.88-11.76,12.87,17.4,19.42,22.06,18.5,13.17-50.01,3.02-67.58,4.22-33.57,2.3-81.69,23.2-77.02,24.89,44.05,1.54,57.63,15.31,51.59,16.2-27.83,3.71-38.27,15.94-68.72,39.82-1.48,3.06,88.09-11.38,100.92,5.33,1.49,3.23-22.62,25.77-38.28,35.36-15.66,9.59,85.59,4.71,100.26-32.68,3.45-10.68,3,34.17-.93,41.76-3.93,7.59,47.75-32.89,57.9-69.97,2.2-7.71,16.07,15.34,13.1,35.26-2.15,14.38,27.77-71.6,64.48-97.33"/>
    <polygon class="cls-2" points="934.25 971.44 895.6 1025.8 937.93 1163.78 999.53 1231.63 1041.62 1161.2 984.07 976.37 937.93 954.21 934.25 971.44"/>
    <path class="cls-4" d="m1136.18,951.62l9.1,139.99s72.29,20.68,79.53,23.73,117.98,49.51,189.71,83.77h0s18.97,44.09,18.97,44.09l-30.52,30.04c-71.46-23.49-198.11-70.07-198.11-70.07,0,0-5.16,66.51,3.88,89.59,9.04,23.08,120.99-.84,120.37,52.51-.49,42.46-11.43,78.35-9.95,87.53l-39.06,17.9-45.86-7.99c-2.97-7.41,1.89-50.18,1.89-50.18-21.61-.65-86.5-26.19-106.47-29.52-27.97-4.66-120.66-20.21-144.88,16.58-23.2,35.24-67.97,49.16-75.27,55.01l-77.75,18.87-48.64-19.41c6.11-10.57,83.35-70.24,98.27-85.9,15.71-16.5,51.21-24.58,58.66-50.49s2.91-84.67,2.91-84.67c0,0-236.34,146.33-252.95,142.91-16.61-3.42-29.3-36.07-24.76-50.75,4.54-14.68,247.63-174.67,253.91-177.96,6.28-3.29,72.35-32.66,72.35-32.66l-4.54-134.78"/>
    <path class="cls-6" d="m1449.37,1286.47c-4.72-.08-22.46-5.36-46.4-13.23,18.34-30.55,13.39-72.47,13.25-73.31,29.66,14.16,49.71,24.92,51.95,29.3,7.68,14.99,0,57.55-18.8,57.24Z"/>
    <path class="cls-6" d="m1319.29,1433.44s40.7-11.76,47.24-1.9c10.43,15.72,13.77,64.51,3.12,73.25-10.64,8.74-127.1,7.58-135.04,0-7.94-7.58-.22-61.7-.22-61.7h1s65.41-.94,83.88-9.64h.02Z"/>
    <path class="cls-6" d="m896.46,1434.06s27.45-8.1,36.05,2.5c8.59,10.6,9.77,69.59.04,75.81-9.73,6.22-141.78,1.65-149.44-7.2-7.64-8.82-4.52-71.01-.06-71.02,59.66,8.55,113.42-.1,113.42-.1Z"/>
    <line class="cls-7" x1="1239.75" y1="1362.57" x2="1236.13" y2="1392.52"/>
    <polyline class="cls-4" points="959.48 900.54 1135.54 893.93 1222.21 909.12 1247.76 942.32"/>
    <path class="cls-6" d="m1304.96,1089.29c-2.05,33.24-62.4,92.18-114.21,100.54-31.31,5.05-75.23-32.53-75.23-32.53,2.22-22.57,30.28-68.85,58.15-95.53,29.32-28.05,89.99-32.33,89.99-32.33,17.26,11.08,43.41,25.64,41.3,59.85Z"/>
    <path class="cls-11" d="m981.55,1169.93c16.4-32.01,26.69-49.32,26.93-69.2s-54.46-139.45-54.46-139.45l-40.51,32.09-20.46,83.03,88.51,93.53Z"/>
    <path class="cls-4" d="m953.43,1043.65s5.78,62.95,34.66,90.85c28.87,27.91,127.43,22.8,127.43,22.8,2.22-22.57,30.28-68.85,58.15-95.53,29.32-28.05,89.99-32.33,89.99-32.33,0,0,9.96-54.24-15.9-87.12l-74.55-48.39-222.58,46.16"/>
    <path class="cls-8" d="m918.92,1009.39c59.81-22.82,42.05-53.44,51.6-45.46,61.19,46.63,47.91,82.45,41.82,92.41-6.09,9.97,35.95-15.33,28.82-48.16-7.12-32.83-3.92-58.24,0-52.12,8.05,11.24,18.01,9.24,51.16,17.81,33.15,8.58,38.58,35.33,43.95,44.2,5.38,8.87-9.59-57.25-4.32-51.46,7.97,9.72,38.92,17.45,61.25,38.26,9.85,12.23,2.16-17.15-6.49-34.31s-4.55-42.52,0-40.24c59.1,44.73,126.37-2.46,111.43.68-14.94,3.14-37.26-23.62-41.77-30.06-4.53-6.47-7.67-17.65-25.38-26.24l-76.48-50.65c-58.89-28.1-64.5-20.71-136.36-13.6-29.58,2.93-42.18,11.14-81.1,40.67l-3.3-5.9s-39.13,33.85-50.88,68.64c-11.75,34.79-22.93,50.43-78.7,84.39-8.35,3.19,19.88,31.18,68.16,9.29,6.26-6.58-7.16,81.01-99.94,98.25-18.31,4.22,55.72,44.29,85.76,16.28,7.67-7.39,9.28,84.69-61.96,105.49-27.46,8.77,88.78,22.39,131.85-42.33,3.35-6.13,6.14,38.68-9.29,58.68-15.42,19.99,54.75-25.33,70.67-88.47"/>
    <path id="Hair" class="cls-8" d="m926.41,1099.16c37.05-29.35,40.28-55.81,24.88-107.17"/>
    <path class="cls-12" d="m1136.14,886.96h0,0Zm-85.63-4.16s0,0,0,0h0Z"/>
    <path class="cls-6" d="m696.62,1353.22c4.63-.91,20.52-9.78,42.7-21.75-23.44-26.84-28.01-61.29-28.02-62.15-26.7,19.17-40.08,30.07-41.52,34.77-4.92,16.11,8.38,52.74,26.84,49.12Z"/>
    <ellipse class="cls-3" cx="1248.09" cy="1105.53" rx="2.28" ry="8.59"/>
    <ellipse class="cls-5" cx="1268.93" cy="1096.95" rx="1.8" ry="7.77"/>
    <circle class="cls-5" cx="1149.99" cy="1004.15" r="6.11"/>
    <circle class="cls-5" cx="1130.72" cy="1045.06" r="3.03"/>
    <circle class="cls-1" cx="1231.19" cy="976.37" r="4.94"/>
    <circle class="cls-5" cx="1214.52" cy="1011.99" r="2.72"/>
    <path class="cls-9" d="m1075.62,991.99s52.11-2.82,101.09-13.62c49.54-10.92,90.28-28.58,90.28-28.58,0,0,20.91,67.08-7.97,75.38-38.58,11.09-48.71-18.41-57.15-47.95l-19,5.21s19.8,68.67-32.28,79.35c-66.45,13.62-72.07-41.98-74.95-69.81Z"/>
    <path class="cls-4" d="m881.37,1348.15s45.1-55.35,92.23-31.02.41,75.69.41,75.69"/>
  </g>
  <g id="Layer_7" data-name="Layer 7">
    <g>
      <g>
        <path class="cls-2" d="m1129.86,878.25c-24.25,12.85-65.36,11.34-87.86-3.12-4.4-4.65,35.8-196.45,45.05-195.82,9.26.64,48.32,193.31,42.81,198.94Z"/>
        <path class="cls-10" d="m1089.38,889.25c-17.93,0-36.05-4.14-48.6-12.21l-.23-.15-.19-.2c-1.05-1.11-2.23-2.36,2.48-29.9,2.75-16.07,6.88-37.2,11.64-59.49,8.82-41.3,20.67-90.59,27.49-105.06,1.32-2.79,2.86-5.35,5.25-5.19,2.21.15,3.84,2.43,6.22,8.7,7.37,19.36,18.73,70.03,26.23,107.54,4.4,22.01,8.08,42.44,10.36,57.52,4,26.44,2.53,27.94,1.46,29.03l-.25.25-.31.17c-11.39,6.03-26.4,8.99-41.54,8.99Zm-45.44-15.58c21.88,13.56,60.68,14.93,84.12,2.96.94-5.87-4.79-44.16-16.13-98.5-11.67-55.93-21.06-89.39-24.95-95.81-3.76,6.04-12.94,36.82-25.58,94.42-11.32,51.61-18,90.86-17.47,96.92Zm85.93,4.58h0,0Zm-1.91-1.17h0Zm-83.95-2.93s0,0,0,0h0Z"/>
      </g>
      <g>
        <path class="cls-9" d="m1041.66,875.26c-1.13,0-2.1-.84-2.25-1.98-.16-1.24.72-2.38,1.96-2.54.14-.02,14.05-1.81,31.34-6.1,22.75-5.64,41.01-13.03,52.81-21.35,1.02-.72,2.44-.48,3.16.55.72,1.02.48,2.44-.55,3.16-29.56,20.85-83.9,27.95-86.2,28.24-.1.01-.19.02-.29.02Z"/>
        <path class="cls-9" d="m1047.3,838.78c-1.1,0-2.07-.81-2.24-1.93-.19-1.24.67-2.4,1.91-2.58.54-.08,54.46-8.43,70.42-29.63.75-1,2.18-1.2,3.18-.45,1,.75,1.2,2.18.45,3.18-7.23,9.6-21.82,17.8-43.37,24.38-15.86,4.85-29.86,6.98-30,7.01-.11.02-.23.03-.34.03Z"/>
        <path class="cls-9" d="m1054.51,808.27c-1.02,0-1.95-.69-2.2-1.73-.3-1.22.45-2.45,1.67-2.74.33-.08,33.38-8.38,55.84-30.92.88-.89,2.32-.89,3.21,0,.89.88.89,2.32,0,3.21-23.37,23.46-56.57,31.78-57.97,32.12-.18.04-.36.07-.54.07Z"/>
        <path class="cls-9" d="m1059.57,776.75c-.99,0-1.89-.65-2.18-1.64-.35-1.2.35-2.46,1.55-2.81.26-.07,25.96-7.65,46.61-28.33.89-.89,2.32-.89,3.21,0,.89.89.89,2.32,0,3.21-21.51,21.54-47.47,29.17-48.57,29.48-.21.06-.42.09-.63.09Z"/>
        <path class="cls-9" d="m1067.56,746.05c-.91,0-1.77-.55-2.12-1.46-.45-1.17.14-2.48,1.31-2.93.21-.08,20.62-8.05,31.25-23.54.71-1.03,2.12-1.3,3.16-.59,1.03.71,1.3,2.12.59,3.16-11.44,16.68-32.48,24.87-33.37,25.21-.27.1-.54.15-.81.15Z"/>
        <g>
          <path class="cls-9" d="m1073.79,717.22s15.62-9.08,21.64-18.04"/>
          <path class="cls-9" d="m1073.79,719.49c-.78,0-1.54-.4-1.96-1.13-.63-1.08-.26-2.47.82-3.1.15-.09,15.25-8.93,20.9-17.35.7-1.04,2.11-1.32,3.15-.62,1.04.7,1.32,2.11.62,3.15-6.24,9.29-21.73,18.36-22.39,18.74-.36.21-.75.31-1.14.31Z"/>
        </g>
      </g>
      <path class="cls-12" d="m1089.38,889.47c-17.97,0-36.14-4.15-48.73-12.24l-.26-.16-.21-.22c-1.14-1.2-2.31-2.44,2.42-30.1,2.75-16.07,6.88-37.2,11.64-59.5,8.82-41.32,20.68-90.63,27.5-105.11,1.35-2.87,2.95-5.5,5.47-5.32,2.32.16,4,2.48,6.42,8.85,7.37,19.38,18.74,70.06,26.24,107.57,4.4,22.01,8.08,42.44,10.36,57.53,4.02,26.55,2.57,28.04,1.4,29.23l-.27.28-.34.18c-11.42,6.05-26.46,9.01-41.65,9.01Zm-45.22-15.94c21.81,13.45,60.33,14.8,83.69,2.95.85-6.19-4.89-44.37-16.13-98.26-11.47-55-20.76-88.32-24.74-95.45-3.86,6.71-12.95,37.46-25.37,94.08-11.23,51.18-17.9,90.29-17.46,96.67Zm85.7,4.72h0,0Zm-85.63-4.16s0,0,0,0h0Z"/>
    </g>
    <path class="cls-2" d="m938.82,942.18c17.58-4.06,20.88-18.96,20.88-18.96l-27.64-100.76"/>
    <g id="L_ear" data-name="L ear">
      <path class="cls-2" d="m938.82,942.18c-29.44-29.49-30.74-121.05-9.88-138.37,1.54-1.28,3.28-2.2,5.21-2.81"/>
      <path class="cls-12" d="m938.82,944.68c-.64,0-1.28-.24-1.77-.73-18.99-19.02-26.05-61.95-24.57-93.79,1.11-23.76,6.52-41.35,14.86-48.28,1.76-1.46,3.79-2.56,6.05-3.27,1.32-.41,2.72.31,3.14,1.63.42,1.32-.31,2.72-1.63,3.14-1.64.52-3.11,1.31-4.36,2.35-7.15,5.94-12.03,22.64-13.06,44.66-1.43,30.77,5.19,72.07,23.11,90.02.98.98.97,2.56,0,3.54-.49.49-1.13.73-1.77.73Z"/>
    </g>
    <g id="L_ear-2" data-name="L ear">
      <path class="cls-12" d="m934.99,800.75c24.5-6.41,75.3,35.62,87.29,65.65,0,0-8.86,5.37-17.81,2.39s0,9.33-1.12,14.93-10.82,10.45-18.29,7.84c-7.46-2.61-2.61,9.33-7.46,17.54-4.85,8.21-17.23,12.67-17.23,12.67,0,0-45.95-79.46-25.78-120.91l.41-.11Z"/>
      <path class="cls-12" d="m959.24,924.83l-1.05-1.81c-.12-.2-11.7-20.35-20.64-45.32-12.13-33.9-13.89-60.12-5.22-77.93l.5-1.02,1.53-.42c12.07-3.16,30.48,3.99,50.51,19.61,18.59,14.5,33.82,32.72,39.74,47.54l.79,1.97-1.81,1.1c-.4.24-9.96,5.94-19.9,2.62-.25-.08-.47-.15-.65-.19.21,1.07.75,2.71,1.15,3.89,1.07,3.23,2.18,6.57,1.63,9.35-.6,3.02-3,5.92-6.57,7.96-4.69,2.67-10.43,3.34-15,1.75-.46-.16-.75-.21-.9-.22-.35.73-.51,2.94-.62,4.44-.26,3.66-.59,8.22-2.96,12.24-5.25,8.88-18,13.56-18.54,13.75l-1.96.71Zm-22.9-121.83c-16.51,36.55,18.47,103.47,25.12,115.61,3.49-1.55,10.74-5.3,13.98-10.78,1.77-3,2.04-6.75,2.28-10.05.26-3.63.49-6.77,2.86-8.33,1.39-.91,3.17-1,5.3-.25,3.23,1.13,7.4.61,10.87-1.37,2.28-1.3,3.83-3.02,4.14-4.6.29-1.47-.68-4.42-1.47-6.79-1.3-3.92-2.43-7.31-.29-9.44,1.96-1.96,5.09-.92,6.12-.57,5.43,1.81,10.97.03,13.8-1.2-12.91-28.51-60.02-67.08-82.72-62.22Z"/>
    </g>
    <path class="cls-2" d="m1143.05,841.01s11.39,14.86,26.21,13.88,15.19-37.02,15.19-37.02"/>
    <g>
      <path class="cls-2" d="m1142.25,839.81c5.36-22.93,41.32-72.53,57.11-72.48,1.97,0,3.99.97,6.01,2.75l-33.17,83.46"/>
      <path class="cls-12" d="m1172.2,856.05c-.31,0-.62-.06-.92-.18-1.28-.51-1.91-1.96-1.4-3.25l32.48-81.72c-1.07-.71-2.08-1.07-3-1.07h-.02c-6.16,0-18.11,10.45-30.45,26.64-12.02,15.77-21.74,33.41-24.2,43.91-.31,1.34-1.66,2.18-3,1.86-1.34-.31-2.18-1.66-1.87-3,5.33-22.78,41.87-74.41,59.52-74.41h.03c2.55,0,5.13,1.15,7.66,3.38l1.32,1.16-33.82,85.1c-.39.98-1.33,1.58-2.32,1.58Z"/>
    </g>
    <g>
      <path class="cls-12" d="m1206.05,770.71c13.46,13.12,26.71,62.24,25.74,109.16-4.22-.5-9.56-10.32-13.49-7.37s-18.69,0-23.28-2.95-.33-17.71-7.97-12.79-17.77-2.94-17.77-2.94c0,0,12.03-77.07,34.07-82.74l2.71-.37Z"/>
      <path class="cls-12" d="m1234.23,882.68l-2.74-.33c-2.58-.31-4.89-2.48-7.13-4.58-1.08-1.02-3.96-3.73-4.57-3.28-5.17,3.88-21.1.39-26.14-2.85-2.93-1.88-3.37-5.9-3.77-9.44-.13-1.16-.33-2.97-.63-3.83-.2.09-.48.23-.86.48-9.02,5.81-20.19-2.7-20.66-3.07l-1.17-.9.23-1.46c.03-.19,3.1-19.65,8.84-39.55,7.91-27.42,17.02-42.64,27.07-45.22l.29-.06,3.92-.53.87.85c15.03,14.66,27.41,66.53,26.49,111l-.06,2.76Zm-14.38-13.26c2.93,0,5.74,2.64,7.94,4.71.48.45,1.01.95,1.55,1.42.05-20.58-2.56-42.54-7.43-62.34-4.57-18.56-10.78-33.28-16.77-39.86l-1.31.18c-16.29,4.47-28.24,57.14-31.84,79.12,2.61,1.66,8.98,5.04,13.7,2,.82-.53,3.33-2.15,5.77-.99,2.65,1.26,3.01,4.53,3.4,7.99.22,1.94.58,5.2,1.5,5.79,4.56,2.93,17.93,4.93,20.43,3.05,1.02-.76,2.04-1.08,3.06-1.08Z"/>
    </g>
  </g>
</svg>