<?xml version="1.0" encoding="UTF-8"?>
<svg xmlns="http://www.w3.org/2000/svg" viewBox="0 0 2000 2000">
  <defs>
    <style>
      .cls-1 {
        fill: #f765a2;
      }

      .cls-2 {
        fill: #ec008c;
      }

      .cls-3, .cls-4, .cls-5, .cls-6, .cls-7 {
        fill: #fff;
      }

      .cls-8, .cls-9 {
        fill: #ffa4b7;
      }

      .cls-10, .cls-11 {
        fill: #0b1355;
      }

      .cls-12 {
        fill: none;
      }

      .cls-12, .cls-4, .cls-9, .cls-5, .cls-11, .cls-6, .cls-7 {
        stroke-linecap: round;
        stroke-miterlimit: 10;
      }

      .cls-12, .cls-11, .cls-6 {
        stroke: #0b1355;
      }

      .cls-12, .cls-11, .cls-6, .cls-7 {
        stroke-width: 7.17px;
      }

      .cls-4 {
        stroke-width: 7.92px;
      }

      .cls-4, .cls-5, .cls-7 {
        stroke: #fff;
      }

      .cls-9 {
        stroke: #f765a2;
        stroke-width: 6.51px;
      }

      .cls-5 {
        stroke-width: 6.12px;
      }
    </style>
  </defs>
  <g id="Layer_3" data-name="Layer 3">
    <g id="skateboard">
      <path class="cls-1" d="m1581.37,1397.71c78.15-8.69,129.21-93.72,126.63-110.72-2.25-14.85-19.95-12.37-22.6-7.4-29.11,54.51-51.75,82.98-106.76,93.82-55.01,10.84-1024.87,20.31-1096.6,0-53.92-15.26-77.65-39.31-106.76-93.82-2.65-4.97-20.35-7.45-22.6,7.4-2.58,17,43.99,95.35,126.63,110.72,100.76,18.75,1023.9,8.69,1102.05,0Z"/>
      <circle class="cls-10" cx="611.91" cy="1481.95" r="64.33"/>
      <circle class="cls-10" cx="1435.41" cy="1481.95" r="64.33"/>
    </g>
    <path class="cls-9" d="m845.56,1034.87s-57.25,11.05-87.71,0c-30.45-11.05,25.84,28.87,14.5,31.2-11.34,2.34-104.73,33.86-163.38,16.98-58.65-16.88,18.46,24.96,27.86,31.65,26.55,18.9-71.74,4.33-96.95,6.05-48.17,3.3-117.19,33.28-110.49,35.71,63.19,2.21,82.68,21.96,74.01,23.23-39.92,5.33-54.9,22.87-98.58,57.12-2.12,4.39,126.37-16.32,144.78,7.64,2.14,4.63-32.45,36.97-54.92,50.73s122.78,6.75,143.83-46.88c4.95-15.32,4.3,49.02-1.34,59.91-5.64,10.89,68.5-47.19,83.06-100.38,3.15-11.07,23.05,22.01,18.79,50.59-3.08,20.63,39.84-102.71,92.5-139.63"/>
    <polygon class="cls-3" points="812.6 612.37 757.16 690.35 817.88 888.3 906.25 985.64 966.62 884.6 884.07 619.45 817.88 587.65 812.6 612.37"/>
    <path class="cls-6" d="m1102.28,583.93l13.05,200.83s103.71,29.67,114.09,34.04c10.38,4.38,169.25,71.03,272.15,120.17h0s27.21,63.25,27.21,63.25l-43.78,43.09c-102.51-33.7-284.2-100.52-284.2-100.52,0,0-7.4,95.41,5.57,128.52,12.97,33.11,173.57-1.2,172.68,75.33-.71,60.91-16.4,112.4-14.28,125.57l-56.03,25.67-65.79-11.46c-4.27-10.63,2.71-71.99,2.71-71.99-30.99-.93-124.09-37.58-152.75-42.35-40.13-6.69-173.1-29-207.85,23.79-33.28,50.56-97.51,70.53-107.99,78.91l-111.54,27.07-69.78-27.85c8.77-15.17,119.57-100.76,140.97-123.23,22.54-23.67,73.46-35.26,84.16-72.43,10.7-37.17,4.17-121.46,4.17-121.46,0,0-339.05,209.92-362.88,205.01-23.83-4.9-42.04-51.74-35.52-72.8,6.52-21.06,355.24-250.57,364.25-255.3,9.01-4.73,103.8-46.85,103.8-46.85l-6.52-193.36"/>
    <path class="cls-11" d="m1551.58,1064.3c-6.77-.11-32.22-7.69-66.56-18.98,26.31-43.83,19.21-103.96,19.01-105.17,42.55,20.31,71.31,35.75,74.53,42.03,11.02,21.5,0,82.56-26.97,82.12Z"/>
    <path class="cls-11" d="m1364.96,1275.15s58.39-16.87,67.77-2.73c14.96,22.56,19.75,92.55,4.48,105.09-15.27,12.54-182.33,10.88-193.72,0-11.39-10.88-.32-88.52-.32-88.52h1.43s93.83-1.35,120.33-13.83h.03Z"/>
    <path class="cls-11" d="m758.39,1276.03s39.38-11.62,51.71,3.59c12.33,15.21,14.02,99.83.06,108.76-13.97,8.93-203.39,2.36-214.39-10.33-10.96-12.65-6.49-101.87-.09-101.88,85.58,12.26,162.7-.14,162.7-.14Z"/>
    <line class="cls-12" x1="1250.87" y1="1173.47" x2="1245.67" y2="1216.45"/>
    <polyline class="cls-6" points="848.79 510.65 1101.37 501.17 1225.69 522.96 1262.35 570.59"/>
    <path class="cls-11" d="m1344.41,781.43c-2.94,47.69-89.52,132.24-163.84,144.23-44.92,7.24-107.92-46.67-107.92-46.67,3.18-32.38,43.44-98.77,83.42-137.05,42.06-40.24,129.1-46.38,129.1-46.38,24.76,15.9,62.28,36.78,59.25,85.86Z"/>
    <path class="cls-8" d="m880.46,897.11c23.53-45.93,38.29-70.76,38.63-99.28.34-28.52-78.13-200.05-78.13-200.05l-58.12,46.03-29.35,119.11,126.97,134.18Z"/>
    <path class="cls-6" d="m840.11,715.96s8.29,90.31,49.72,130.33c41.42,40.04,182.81,32.71,182.81,32.71,3.18-32.38,43.44-98.77,83.42-137.05,42.06-40.24,129.1-46.38,129.1-46.38,0,0,14.29-77.81-22.81-124.98l-106.95-69.42-319.31,66.22"/>
    <path class="cls-9" d="m790.6,666.81c85.8-32.73,60.32-76.67,74.03-65.22,87.78,66.9,68.74,118.28,60,132.57-8.74,14.3,51.57-22,41.35-69.09-10.22-47.09-5.63-83.55,0-74.77,11.55,16.12,25.84,13.25,73.39,25.55,47.55,12.3,55.34,50.68,63.05,63.41,7.71,12.73-13.75-82.13-6.2-73.82,11.43,13.94,55.83,25.04,87.86,54.89,14.14,17.55,3.1-24.61-9.31-49.21-12.41-24.61-6.53-61,0-57.73,84.79,64.17,181.29-3.53,159.85.97-21.44,4.5-53.45-33.89-59.92-43.13-6.5-9.29-11-25.32-36.41-37.64l-109.71-72.66c-84.48-40.31-92.53-29.72-195.62-19.5-42.43,4.2-60.51,15.98-116.34,58.34l-4.73-8.47s-56.13,48.56-72.99,98.47c-16.86,49.91-32.89,72.34-112.9,121.06-11.99,4.58,28.52,44.73,97.78,13.33,8.98-9.45-10.28,116.21-143.38,140.95-26.27,6.05,79.94,63.54,123.04,23.36,11.01-10.6,13.31,121.5-88.89,151.33-39.4,12.58,127.36,32.12,189.15-60.73,4.8-8.8,8.8,55.5-13.32,84.18-22.13,28.68,78.54-36.34,101.38-126.92"/>
    <path id="Hair" class="cls-9" d="m801.35,795.59c53.15-42.1,57.78-80.06,35.69-153.75"/>
    <path class="cls-10" d="m1102.23,491.17h.01-.01Zm-122.84-5.96s0,0,0,0h0Z"/>
    <path class="cls-11" d="m471.7,1160.07c6.64-1.31,29.44-14.03,61.26-31.2-33.62-38.5-40.18-87.93-40.2-89.15-38.3,27.49-57.5,43.13-59.56,49.88-7.06,23.11,12.03,75.66,38.5,70.47Z"/>
    <ellipse class="cls-5" cx="1262.83" cy="804.74" rx="3.27" ry="12.32"/>
    <ellipse class="cls-7" cx="1292.72" cy="792.42" rx="2.58" ry="11.14"/>
    <circle class="cls-7" cx="1122.09" cy="659.29" r="8.77"/>
    <circle class="cls-7" cx="1094.45" cy="717.99" r="4.35"/>
    <circle class="cls-4" cx="1238.58" cy="619.45" r="7.08"/>
    <circle class="cls-7" cx="1214.67" cy="670.53" r="3.91"/>
    <path class="cls-1" d="m1015.41,641.85s74.76-4.04,145.02-19.53c71.06-15.67,129.51-40.99,129.51-40.99,0,0,30,96.23-11.44,108.14-55.34,15.91-69.89-26.41-81.99-68.79l-27.26,7.48s28.41,98.52-46.31,113.84c-95.32,19.55-103.39-60.22-107.53-100.15Z"/>
    <path class="cls-6" d="m736.74,1152.79s64.69-79.4,132.31-44.5c67.62,34.9.59,108.58.59,108.58"/>
  </g>
  <g id="Layer_7" data-name="Layer 7">
    <g>
      <g>
        <path class="cls-3" d="m1093.21,478.68c-34.79,18.43-93.76,16.27-126.04-4.48-6.31-6.67,51.36-281.82,64.63-280.92,13.28.92,69.32,277.32,61.41,285.39Z"/>
        <path class="cls-2" d="m1035.14,494.45c-25.72,0-51.72-5.93-69.73-17.51l-.33-.21-.27-.29c-1.5-1.59-3.21-3.39,3.55-42.89,3.94-23.05,9.88-53.36,16.7-85.35,12.65-59.25,29.65-129.96,39.43-150.72,1.89-4,4.1-7.67,7.53-7.45,3.17.22,5.51,3.49,8.93,12.49,10.57,27.78,26.87,100.46,37.63,154.27,6.31,31.57,11.59,60.88,14.86,82.52,5.74,37.93,3.64,40.08,2.1,41.65l-.35.36-.45.24c-16.33,8.66-37.87,12.9-59.6,12.9Zm-65.19-22.35c31.39,19.46,87.05,21.41,120.68,4.25,1.35-8.41-6.87-63.35-23.14-141.3-16.74-80.24-30.22-128.24-35.79-137.45-5.4,8.66-18.57,52.82-36.7,135.46-16.24,74.04-25.83,130.34-25.06,139.04Zm123.27,6.58h.01-.01Zm-2.74-1.68h0Zm-120.43-4.2s0,0,0,0h0Z"/>
      </g>
      <g>
        <path class="cls-1" d="m966.68,474.39c-1.62,0-3.02-1.2-3.22-2.84-.23-1.78,1.04-3.41,2.82-3.64.2-.03,20.15-2.6,44.96-8.76,32.64-8.1,58.84-18.69,75.77-30.62,1.47-1.03,3.5-.68,4.54.78,1.04,1.47.69,3.5-.78,4.54-42.41,29.9-120.36,40.1-123.66,40.52-.14.02-.28.03-.41.03Z"/>
        <path class="cls-1" d="m974.78,422.06c-1.58,0-2.97-1.16-3.22-2.77-.27-1.78.96-3.44,2.73-3.7.78-.12,78.12-12.1,101.03-42.51,1.08-1.44,3.12-1.72,4.56-.64,1.44,1.08,1.72,3.12.64,4.56-10.37,13.77-31.3,25.54-62.22,34.98-22.75,6.95-42.84,10.02-43.04,10.05-.16.02-.33.04-.49.04Z"/>
        <path class="cls-1" d="m985.13,378.28c-1.47,0-2.79-1-3.16-2.48-.43-1.75.64-3.51,2.39-3.94.47-.12,47.89-12.02,80.1-44.35,1.27-1.27,3.33-1.28,4.6,0,1.27,1.27,1.28,3.33,0,4.6-33.53,33.66-81.16,45.59-83.17,46.08-.26.06-.52.09-.78.09Z"/>
        <path class="cls-1" d="m992.38,333.07c-1.41,0-2.72-.93-3.13-2.36-.5-1.73.5-3.53,2.23-4.03.37-.11,37.24-10.97,66.86-40.64,1.27-1.27,3.33-1.27,4.6,0,1.27,1.27,1.27,3.33,0,4.6-30.85,30.9-68.1,41.84-69.67,42.29-.3.09-.6.13-.9.13Z"/>
        <path class="cls-1" d="m1003.85,289.03c-1.31,0-2.54-.8-3.04-2.09-.64-1.68.2-3.56,1.87-4.2.29-.11,29.59-11.55,44.83-33.77,1.02-1.48,3.05-1.86,4.53-.84,1.48,1.02,1.86,3.04.84,4.53-16.41,23.93-46.6,35.68-47.87,36.17-.38.15-.77.22-1.16.22Z"/>
        <g>
          <path class="cls-1" d="m1012.78,247.67s22.41-13.03,31.05-25.89"/>
          <path class="cls-1" d="m1012.78,250.93c-1.12,0-2.21-.58-2.82-1.62-.9-1.55-.38-3.55,1.18-4.45.22-.13,21.87-12.81,29.98-24.89,1-1.5,3.02-1.89,4.52-.89,1.49,1,1.89,3.03.89,4.52-8.95,13.33-31.18,26.34-32.12,26.89-.52.3-1.08.44-1.63.44Z"/>
        </g>
      </g>
      <path class="cls-10" d="m1035.14,494.78c-25.78,0-51.85-5.95-69.91-17.55l-.37-.24-.3-.32c-1.63-1.72-3.32-3.51,3.47-43.17,3.94-23.05,9.88-53.37,16.7-85.36,12.65-59.27,29.66-130.01,39.46-150.79,1.94-4.11,4.23-7.89,7.85-7.64,3.33.23,5.74,3.55,9.22,12.7,10.58,27.8,26.89,100.51,37.64,154.32,6.31,31.58,11.59,60.89,14.87,82.53,5.77,38.09,3.68,40.22,2,41.93l-.39.4-.49.26c-16.38,8.68-37.96,12.93-59.75,12.93Zm-64.88-22.86c31.28,19.29,86.55,21.24,120.06,4.23,1.22-8.88-7.01-63.66-23.14-140.96-16.46-78.9-29.78-126.7-35.49-136.92-5.53,9.63-18.57,53.73-36.39,134.97-16.11,73.42-25.68,129.53-25.04,138.69Zm122.95,6.77h.01-.01Zm-122.84-5.96s0,0,0,0h0Z"/>
    </g>
    <path class="cls-3" d="m819.15,570.39c25.23-5.82,29.95-27.19,29.95-27.19l-39.65-144.55"/>
    <g id="L_ear" data-name="L ear">
      <path class="cls-3" d="m819.15,570.39c-42.23-42.3-44.1-173.65-14.18-198.51,2.21-1.83,4.71-3.16,7.47-4.03"/>
      <path class="cls-10" d="m819.15,573.98c-.92,0-1.84-.35-2.54-1.05-27.25-27.29-37.37-88.87-35.25-134.54,1.59-34.08,9.35-59.32,21.31-69.26,2.52-2.09,5.44-3.67,8.68-4.7,1.89-.59,3.9.45,4.5,2.34.6,1.89-.45,3.9-2.34,4.5-2.35.74-4.46,1.88-6.26,3.37-10.26,8.52-17.26,32.47-18.73,64.07-2.06,44.15,7.44,103.39,33.16,129.14,1.4,1.4,1.4,3.67,0,5.07-.7.7-1.62,1.05-2.53,1.05Z"/>
    </g>
    <g id="L_ear-2" data-name="L ear">
      <path class="cls-10" d="m813.66,367.5c35.15-9.2,108.02,51.1,125.23,94.19,0,0-12.71,7.71-25.56,3.42-12.85-4.28,0,13.39-1.61,21.42-1.61,8.03-15.53,14.99-26.24,11.24-10.71-3.75-3.75,13.39-10.71,25.16-6.96,11.78-24.72,18.18-24.72,18.18,0,0-65.92-113.99-36.98-173.45l.59-.16Z"/>
      <path class="cls-10" d="m848.45,545.5l-1.5-2.59c-.17-.29-16.79-29.19-29.61-65.02-17.41-48.63-19.93-86.24-7.49-111.8l.71-1.46,2.19-.6c17.31-4.53,43.72,5.72,72.45,28.13,26.67,20.8,48.52,46.93,57.01,68.2l1.13,2.82-2.6,1.58c-.58.35-14.29,8.52-28.55,3.76-.36-.12-.67-.21-.93-.28.3,1.54,1.08,3.88,1.64,5.59,1.54,4.64,3.13,9.43,2.33,13.41-.87,4.34-4.3,8.5-9.42,11.42-6.72,3.84-14.97,4.8-21.51,2.5-.66-.23-1.07-.3-1.29-.32-.51,1.04-.74,4.22-.89,6.37-.38,5.25-.85,11.8-4.25,17.56-7.53,12.74-25.82,19.45-26.6,19.72l-2.82,1.02Zm-32.86-174.77c-23.68,52.43,26.49,148.44,36.04,165.85,5-2.23,15.41-7.6,20.06-15.47,2.55-4.31,2.93-9.68,3.27-14.42.38-5.21.7-9.71,4.1-11.94,1.99-1.31,4.55-1.43,7.6-.36,4.64,1.63,10.62.87,15.59-1.96,3.27-1.86,5.49-4.33,5.94-6.6.42-2.11-.98-6.34-2.11-9.74-1.87-5.63-3.48-10.49-.42-13.55,2.81-2.81,7.31-1.32,8.78-.82,7.79,2.59,15.73.04,19.8-1.72-18.53-40.9-86.11-96.24-118.66-89.26Z"/>
    </g>
    <path class="cls-3" d="m1112.14,425.25s16.34,21.31,37.61,19.91c21.26-1.4,21.79-53.1,21.79-53.1"/>
    <g>
      <path class="cls-3" d="m1110.99,423.53c7.69-32.89,59.28-104.05,81.92-103.98,2.83,0,5.73,1.39,8.63,3.95l-47.58,119.74"/>
      <path class="cls-10" d="m1153.95,446.83c-.44,0-.89-.08-1.32-.25-1.84-.73-2.74-2.82-2.01-4.66l46.59-117.24c-1.54-1.02-2.98-1.53-4.31-1.54h-.02c-8.84,0-25.98,14.99-43.68,38.22-17.24,22.62-31.19,47.93-34.71,62.99-.45,1.93-2.39,3.13-4.31,2.68-1.93-.45-3.13-2.38-2.68-4.31,7.64-32.67,60.06-106.75,85.39-106.75h.04c3.66.01,7.36,1.64,10.99,4.85l1.89,1.67-48.51,122.08c-.56,1.41-1.91,2.26-3.33,2.26Z"/>
    </g>
    <g>
      <path class="cls-10" d="m1202.51,324.41c19.31,18.83,38.31,89.29,36.92,156.59-6.05-.72-13.71-14.81-19.36-10.57-5.65,4.23-26.82,0-33.4-4.23s-.47-25.4-11.43-18.35c-10.96,7.06-25.5-4.22-25.5-4.22,0,0,17.26-110.56,48.87-118.69l3.89-.53Z"/>
      <path class="cls-10" d="m1242.94,485.03l-3.93-.47c-3.71-.44-7.02-3.55-10.22-6.56-1.56-1.46-5.67-5.34-6.56-4.7-7.42,5.57-30.27.56-37.49-4.09-4.2-2.7-4.84-8.46-5.4-13.54-.18-1.66-.47-4.26-.91-5.49-.29.12-.69.33-1.24.68-12.94,8.33-28.96-3.88-29.64-4.4l-1.67-1.3.33-2.09c.04-.28,4.45-28.19,12.68-56.74,11.35-39.34,24.41-61.16,38.84-64.88l.41-.08,5.63-.76,1.25,1.22c21.56,21.03,39.32,95.44,38,159.23l-.08,3.95Zm-20.63-19.02c4.2,0,8.23,3.79,11.39,6.76.68.64,1.45,1.36,2.22,2.04.07-29.52-3.67-61.03-10.67-89.43-6.56-26.62-15.47-47.75-24.06-57.18l-1.87.25c-23.37,6.41-40.51,81.97-45.67,113.5,3.74,2.38,12.88,7.24,19.65,2.87,1.18-.76,4.78-3.08,8.28-1.42,3.8,1.81,4.32,6.49,4.88,11.46.31,2.79.83,7.45,2.15,8.3,6.55,4.21,25.72,7.07,29.31,4.38,1.46-1.1,2.93-1.55,4.38-1.55Z"/>
    </g>
  </g>
</svg>