<?xml version="1.0" encoding="UTF-8"?>
<svg id="Layer_7" data-name="Layer 7" xmlns="http://www.w3.org/2000/svg" viewBox="0 0 2000 2000">
  <defs>
    <style>
      .cls-1 {
        fill: #f765a2;
      }

      .cls-2 {
        fill: #ec008c;
      }

      .cls-3 {
        fill: #fff;
      }

      .cls-4 {
        fill: #ffa4b6;
      }

      .cls-5 {
        fill: #ffa4b7;
      }

      .cls-6 {
        fill: #0b1355;
      }
    </style>
  </defs>
  <polygon class="cls-4" points="801.8 491.22 758.42 578.62 873.67 869.46 973.84 837 953.18 695.41 881.21 467.31 801.8 491.22"/>
  <g>
    <path class="cls-5" d="m841.03,1158.47s-58.95,8.29-89.43-4.57c-30.48-12.85,24.84,30.78,13.16,32.57-11.68,1.79-108.55,29.07-167.48,8.81-58.93-20.26,17.52,26.41,26.76,33.73,26.08,20.65-73.38.68-99.17,1.12-49.28.85-121.23,27.83-114.53,30.66,64.32,5.54,83.16,26.7,74.25,27.54-40.98,3.35-57.17,20.46-103.5,53.11-2.39,4.37,129.71-10.06,147.23,15.33,1.94,4.84-35.01,36-58.64,48.87-23.63,12.86,124.84,13.28,149.1-40.31,5.85-15.36,1.83,50.21-4.48,61.02-6.32,10.81,72.31-44.55,89.92-98.03,3.79-11.12,22.36,23.64,16.52,52.56-4.21,20.88,45.97-102.66,101.59-137.56"/>
    <path class="cls-1" d="m614.48,1431.05c-1.35,0-2.53-.59-3.24-1.65-.62-.93-1.09-2.51.19-4.71,3.79-6.49,6.72-36.66,6.88-51.68-25.29,37.82-110.71,45.98-141.16,42.4-8.62-1.02-12.58-2.9-13.23-6.29-.47-2.46.94-4.61,4.19-6.38,23.24-12.65,52.98-38.5,56.68-45.09-13.68-15.43-83.82-13.38-117.9-12.37-25.48.75-27.08.64-28.62-1.86-.67-1.09-.7-2.42-.08-3.55l.37-.68.63-.44c7.74-5.46,14.77-10.57,20.97-15.08,31.03-22.59,48.41-35.24,82.05-38.44-5.06-5.27-26.26-17.15-72.15-21.11l-.52-.04-.48-.2c-1.79-.75-2.75-2.48-2.4-4.3.37-1.92,1.7-4.06,13.76-9.08,7.77-3.23,18.01-6.8,28.83-10.03,16.36-4.89,47.94-13.16,75.56-13.64,8.24-.12,23.66,1.73,39.97,3.7,20.15,2.44,53.29,6.47,59.87,3.63-.4-.51-1.18-1.34-2.67-2.52-1.69-1.34-6.12-4.31-11.25-7.76-33.83-22.7-41.01-29.11-38.43-34.3,1.79-3.62,6.32-4.21,26.07,2.58,49.95,17.17,127.25-.33,156.36-6.91,3.42-.77,5.99-1.36,7.8-1.72-1.87-3.33-7.81-9.9-11.58-14.07-9.93-10.97-13.85-15.58-11.16-19.36,2.4-3.39,7.58-1.57,13.12.76,29.3,12.35,87.1,4.42,87.68,4.34,1.82-.27,3.5,1.01,3.75,2.83s-1.01,3.5-2.83,3.75c-2.44.34-60.22,8.27-91.19-4.79-.83-.35-1.57-.64-2.21-.89,2.18,2.73,5.36,6.24,7.77,8.9,10.84,11.98,15.1,17.28,13.58,21.57-.61,1.73-2.14,2.9-4.18,3.21-1.49.23-4.67.95-9.08,1.95-29.61,6.7-108.25,24.5-159.99,6.72-7.91-2.72-12.61-3.95-15.37-4.49,6.68,6.34,24.99,18.63,33.6,24.41,5.47,3.67,9.78,6.57,11.68,8.06,1.94,1.54,7.1,5.62,5.18,10.22-2.94,7.04-19.38,6.3-67.3.48-16.07-1.95-31.23-3.82-39.05-3.66-37.6.65-88.13,16.87-105.92,24.86,46.32,5.3,70.95,19.47,70.99,28.31,0,2.26-1.56,4.68-5.09,5.02-33.23,2.72-49.14,14.3-80.85,37.38-4.22,3.08-8.83,6.43-13.79,9.98,4.57-.04,10.55-.22,16.41-.39,53.66-1.57,111.95-1.74,124.38,16.28l.21.31.14.35c.83,2.06,2.37,5.91-20.68,25.21-12.88,10.78-27.41,21.09-38.29,27.17,9.82,2.53,43.59,2.74,77.94-5.26,24.37-5.68,55.47-16.99,65.33-38.61.53-1.38,1.61-4.07,4.2-4.34,1.42-.13,2.76.52,3.58,1.79,3.42,5.29.36,43.39-4.02,60.14,17.33-10.99,67.81-52.53,81.59-94.36,1.39-4.09,4.51-4.83,6.75-4.21,7.76,2.1,17.36,24.96,17.32,46.53.8-1.48,1.63-3.04,2.47-4.61,17.35-32.36,53.45-99.69,92.96-124.48,1.56-.97,3.61-.51,4.58,1.05.98,1.55.5,3.61-1.05,4.58-38.02,23.85-73.56,90.14-90.64,121.99-2.85,5.31-5.1,9.51-6.79,12.45-2.23,3.86-3.99,6.91-7.14,5.78-3.07-1.1-2.36-4.63-2.05-6.14,4.37-21.67-5.74-45.23-10.41-49.97-16.89,49.54-83.04,99.53-91.96,100.74-.22.03-.44.05-.65.05Zm109.35-48.34h0Z"/>
  </g>
  <g>
    <path class="cls-3" d="m1234.18,960.14v127.54l-16.03,121.42-126.61,86.48s-35.43-30.34-53.74-26.36c-10.78,2.34-77.47,78.91-77.47,78.91l-49.14,47.76-108.68-86.42,25.4-94.81c10.92-37.95,7.67-242.92,7.67-242.92,0,0-355.63,183.38-379.96,178.37-24.33-5.01-42.92-52.83-36.26-74.33,6.66-21.5,385.41-233.58,385.41-233.58l93.52-43.39-3.62-107.5,235.32-8.47"/>
    <path class="cls-6" d="m911.44,1400.75l-113.08-89.92,26.02-97.13c9.63-33.47,8.05-202.18,7.63-236.01-20.45,10.51-97.38,49.89-175.66,88.39-185.03,90.99-196.96,88.55-201.46,87.61-9.91-2.04-19.7-10.48-27.55-23.76-10.87-18.38-15.69-41.61-11.47-55.24,1.25-4.05,4.58-14.8,196.86-126.94,94.46-55.09,189.32-108.23,190.27-108.76l.25-.13,91.32-42.37-3.66-108.72,238.97-8.61c2-.06,3.72,1.51,3.79,3.53.07,2.02-1.51,3.72-3.53,3.79l-231.67,8.34,3.58,106.27-95.6,44.35c-3.9,2.19-96.3,53.98-188.72,107.86-170.67,99.5-193.14,119.59-194.89,123.61-3.58,11.58,1.06,32.79,10.8,49.28,6.79,11.48,14.86,18.7,22.72,20.32,4.2.85,31.78-5.88,196.74-87,90.87-44.69,179.91-90.58,180.8-91.04l5.25-2.7.09,5.9c.13,8.39,3.14,205.96-7.81,243.99l-24.76,92.42,104.28,82.92,46.72-45.41c15.95-18.31,68.27-77.56,79.36-79.97,17.44-3.78,46.14,18.31,54.73,25.36l122.97-84,15.79-119.56v-127.3c0-2.02,1.64-3.66,3.66-3.66s3.66,1.64,3.66,3.66v127.78l-16.28,123.28-130.27,88.99-2.13-1.82c-9.47-8.11-37.04-28.51-50.58-25.57-6.37,1.73-43.39,40.88-75.49,77.73l-.21.22-51.44,50.01Z"/>
  </g>
  <g>
    <path class="cls-3" d="m1147.46,1297.88s-10.38-222.4,140-218.2c150.38,4.2,77.44,198.01,77.44,198.01"/>
    <path class="cls-6" d="m1147.45,1301.5c-1.92,0-3.52-1.51-3.61-3.45-.01-.31-1.4-31.88,4.62-70.48,3.54-22.72,8.92-43.44,15.98-61.58,8.89-22.83,20.5-41.64,34.5-55.9,23.13-23.57,52.96-35.01,88.62-34.02,37.58,1.05,64.88,13.87,81.15,38.09,39.03,58.11,1.2,160.48-.43,164.81-.7,1.87-2.78,2.82-4.66,2.11-1.87-.7-2.82-2.79-2.11-4.66.39-1.03,38.15-103.23,1.19-158.24-7.02-10.44-16.42-18.65-27.94-24.39-12.92-6.44-28.87-9.97-47.4-10.49-33.55-.97-61.57,9.78-83.23,31.84-58.07,59.15-53.11,181.34-53.05,182.56.09,2-1.45,3.69-3.45,3.78-.06,0-.11,0-.17,0Z"/>
  </g>
  <g>
    <path class="cls-3" d="m688.38,1424.74s-94.89-173.65,29.03-227.59c141.17-61.44,199.21,181.25,199.21,181.25"/>
    <path class="cls-6" d="m688.39,1428.4c-1.3,0-2.55-.69-3.22-1.91-.55-1-13.48-24.83-23.59-57.86-9.39-30.68-17.87-75.19-4.9-113.04,9.62-28.07,29.56-48.86,59.28-61.8,31.56-13.74,61.64-13.68,89.41.17,33.53,16.73,63.06,52.77,87.77,107.12,18.28,40.22,26.97,76.1,27.05,76.46.47,1.97-.74,3.94-2.71,4.41-1.97.46-3.94-.74-4.41-2.71-.33-1.4-34.43-140.56-110.98-178.74-25.73-12.83-53.73-12.83-83.21,0-27.75,12.08-46.35,31.41-55.27,57.45-23.69,69.14,27.47,164.07,27.99,165.02.97,1.78.32,4-1.46,4.97-.56.3-1.16.45-1.75.45Z"/>
  </g>
  <g>
    <path class="cls-3" d="m1109.16,557.96l16.17,248.74s89.95,12.39,113.48,68.81c23.52,56.42-100.9,422.56-89.66,444.52,11.24,21.96-83.79,18.7-111.34,18.25l74.06-389.95"/>
    <path class="cls-6" d="m1069.91,1342.34c-8.62,0-17.51-.12-26.49-.29-2.11-.04-4.02-.08-5.67-.11l-4.35-.07,74.87-394.22c.38-1.99,2.3-3.29,4.28-2.91,1.99.38,3.29,2.29,2.91,4.28l-73.25,385.68c.44,0,.89.02,1.35.03,14.44.28,38.62.76,60.19-.55,34.05-2.07,40.93-7.41,42.3-9.61.25-.4.71-1.14-.17-2.87-4.91-9.59,7.99-58.75,33.14-152.11,29.56-109.7,70.03-259.95,56.39-292.67-22.44-53.81-109.72-66.47-110.6-66.59l-2.96-.41-.2-2.98-16.17-248.74c-.13-2.02,1.4-3.76,3.42-3.89,1.99-.14,3.76,1.4,3.89,3.42l15.98,245.82c6.99,1.2,25.35,4.84,45.81,13.01,34.21,13.65,57.58,33.56,67.58,57.55,13.51,32.39-17.41,153.85-56.08,297.39-17.54,65.09-37.42,138.87-33.69,146.88,2.29,4.48,1.19,7.95-.14,10.08-7.05,11.28-41.56,13.89-82.36,13.89Z"/>
  </g>
  <g>
    <path class="cls-6" d="m690.28,1404.77s50.23-74.43,162.43-30.43"/>
    <path class="cls-6" d="m690.27,1408.43c-.71,0-1.42-.2-2.05-.63-1.68-1.13-2.12-3.41-.99-5.08.53-.79,13.41-19.57,40.56-32.95,45.14-22.26,93.56-11.66,126.24,1.16,1.88.74,2.81,2.86,2.07,4.75-.74,1.88-2.86,2.81-4.75,2.07-44.89-17.6-86.5-18.09-120.33-1.41-25.42,12.53-37.6,30.3-37.72,30.48-.71,1.05-1.86,1.61-3.04,1.61Z"/>
  </g>
  <g>
    <path class="cls-6" d="m1258.36,1265.24s88.45-117,155.34-56.38"/>
    <path class="cls-6" d="m1258.36,1268.9c-.77,0-1.54-.24-2.21-.74-1.61-1.22-1.93-3.52-.71-5.13.54-.71,13.37-17.59,33.11-35.36,26.76-24.08,52.14-37.4,75.44-39.59,19.37-1.82,36.94,4.26,52.17,18.06,1.5,1.36,1.61,3.67.25,5.17-1.36,1.5-3.67,1.61-5.17.25-13.64-12.36-29.31-17.81-46.55-16.2-52,4.87-102.9,71.4-103.41,72.07-.72.95-1.82,1.45-2.92,1.45Z"/>
  </g>
  <g>
    <polyline class="cls-3" points="850.96 395.15 1108.84 385.47 1235.77 407.72 1273.2 456.36"/>
    <path class="cls-6" d="m1273.2,460.02c-1.1,0-2.18-.49-2.91-1.43l-36.56-47.51-125.15-21.94-257.5,9.66c-2,.11-3.72-1.5-3.8-3.52-.08-2.02,1.5-3.72,3.52-3.8l258.27-9.69.38.07,128.33,22.49,38.29,49.76c1.23,1.6.93,3.9-.67,5.14-.67.51-1.45.76-2.23.76Z"/>
  </g>
  <g>
    <path class="cls-6" d="m1356.99,671.62c-3,48.69-91.4,135.02-167.28,147.26-45.86,7.4-110.19-47.65-110.19-47.65,3.25-33.06,44.35-100.84,85.17-139.92,42.94-41.08,131.81-47.35,131.81-47.35,25.28,16.23,63.58,37.55,60.49,87.66Z"/>
    <path class="cls-6" d="m1180.74,823.23c-18.18,0-40.05-7.46-65.19-22.25-21.84-12.85-37.75-26.4-38.42-26.97l-1.45-1.24.19-1.9c3.33-33.83,45.26-102.94,86.29-142.21,18.28-17.49,46.44-30.95,83.68-40,27.57-6.7,49.49-8.3,50.41-8.36l1.21-.09,1.02.66c1.37.88,2.78,1.78,4.22,2.69,25.74,16.35,61,38.74,57.94,88.28-1.5,24.35-23.53,58.74-57.49,89.77-36.04,32.93-77.18,55.12-112.86,60.88-3.06.49-6.24.74-9.54.74Zm-97.36-53.55c9.15,7.47,58.46,46.22,97.43,46.22,2.83,0,5.6-.2,8.31-.64,34.31-5.54,74.07-27.06,109.09-59.05,32.61-29.8,53.74-62.3,55.12-84.82h0c2.79-45.22-29.01-65.42-54.56-81.64-1.09-.69-2.16-1.37-3.21-2.04-10.64.94-89.52,9.1-128.35,46.25-39.25,37.57-79.3,102.64-83.84,135.73Z"/>
  </g>
  <g>
    <path class="cls-3" d="m842.1,604.77s8.47,92.2,50.77,133.07c42.29,40.88,186.65,33.39,186.65,33.39,3.25-33.06,44.35-100.84,85.17-139.92,42.94-41.08,131.81-47.35,131.81-47.35,0,0,14.59-79.44-23.29-127.6l-109.2-70.88-386.57,70.88"/>
    <path class="cls-6" d="m1052.17,775.48c-44.47,0-130-4.22-161.85-35.01-18.03-17.42-32.24-45.53-42.24-83.56-7.4-28.13-9.54-50.85-9.62-51.81-.19-2.01,1.3-3.8,3.31-3.98,2.02-.19,3.8,1.3,3.98,3.31.08.91,8.84,91.33,49.67,130.77,37.33,36.08,159.92,33.26,180.87,32.5,5.46-34.82,46.1-100.96,85.88-139.04,18.28-17.49,46.44-30.95,83.67-40,22.09-5.37,40.56-7.46,47.49-8.12,2.06-14.2,9.45-80.1-22.63-121.46l-107.46-69.75-385.14,70.62c-1.99.37-3.9-.95-4.26-2.94s.95-3.9,2.94-4.26l388-71.14,110.93,72,.37.48c11.13,14.15,24.79,40.21,26.63,83.97,1.09,25.99-2.46,45.73-2.62,46.56l-.51,2.79-2.83.2c-.88.06-88.06,6.66-129.54,46.35-40.02,38.31-80.87,105.19-84.06,137.63l-.31,3.14-3.15.16c-1.54.08-12.05.59-27.53.59Z"/>
  </g>
  <polyline class="cls-5" points="829.03 578.62 793.79 529.11 843.19 516.33"/>
  <g>
    <path class="cls-5" d="m791.55,554.6c87.6-33.42,61.59-78.27,75.58-66.59,89.63,68.3,70.18,120.76,61.26,135.36-8.92,14.6,52.65-22.46,42.22-70.54-10.43-48.08-5.75-85.3,0-76.34,11.8,16.46,26.38,13.53,74.93,26.09,48.55,12.56,56.5,51.75,64.38,64.74,7.87,13-14.04-83.85-6.33-75.37,11.67,14.24,57.01,25.56,89.71,56.05,14.43,17.92,3.17-25.12-9.51-50.25-12.67-25.12-6.67-62.28,0-58.94,86.57,65.52,185.09-3.6,163.21.99-21.89,4.59-54.57-34.6-61.18-44.03-6.64-9.48-11.23-25.86-37.17-38.43l-112.02-74.19c-86.26-41.16-94.47-30.34-199.72-19.91-43.33,4.29-61.79,16.32-118.78,59.56l-4.83-8.65s-57.31,49.58-74.52,100.54c-17.21,50.96-33.58,73.86-115.27,123.6-12.24,4.68,29.12,45.67,99.83,13.6,9.17-9.64-10.49,118.65-146.39,143.9-26.83,6.17,81.62,64.87,125.62,23.85,11.24-10.82,13.59,124.05-90.75,154.5-40.22,12.85,130.04,32.8,193.12-62,4.9-8.99,8.99,56.66-13.6,85.94-22.59,29.28,68.65-15.88,91.97-108.36"/>
    <path class="cls-1" d="m790.21,910.26c-3.09,0-4.49-1.55-5.08-2.56-2.06-3.55.82-8.09,3.57-11.64,16.56-21.46,17.99-63.57,16.12-77.92-27.7,38.35-71.59,55.57-104.09,63.29-41.75,9.91-77.38,7.65-90.04,3.9-3.54-1.05-8.25-2.92-8.29-7.04-.05-4.61,6.08-6.57,8.39-7.3,56.22-16.41,78.33-63.7,86.51-90.42,8.52-27.82,7.87-50.5,5.92-57.06-30.77,26.3-85.53,9.55-110.61-3.23-9.08-4.63-24.16-13.59-23.17-21.62.22-1.74,1.38-4.85,6.74-6.09,69.99-13.01,107.14-53.06,126-84.36,14.14-23.46,19.17-44.19,19.71-52.04-20.08,8.67-39.46,12.36-57.63,10.92-19.61-1.54-31.56-8.51-36.95-12.53-6.46-4.83-9.83-10.02-9.24-14.25.31-2.24,1.72-4.04,3.88-4.98,83.42-50.82,97.43-73.76,113.63-121.69,7.28-21.55,22.21-45.27,44.37-70.51,16.44-18.72,30.98-31.36,31.13-31.48l3.09-2.67,4.96,8.87c53.3-40.38,73.14-53.53,117.42-57.91,16.95-1.68,31.33-3.36,44.03-4.85,66.39-7.78,84.24-9.86,157.45,25.07l.4.23,111.83,74.06c21.45,10.46,28.95,23.57,34.43,33.15,1.32,2.3,2.56,4.47,3.82,6.27,8.93,12.76,39.17,46.58,57.77,42.69,3.45-.73,5.71-.03,6.71,2.07,1.64,3.43-2.17,6.54-3.8,7.87-8.76,7.15-32.81,19.13-63.17,22.86-26.16,3.22-65.13,1.1-102.96-26.92-3.33,5.3-7.02,32.62,3.67,53.82,4.86,9.63,9.92,22.77,13.21,34.29,6,21.03,2.56,23.25.9,24.32-4.04,2.6-8.14-2.27-10.01-4.59-18.1-16.81-40.36-27.79-58.25-36.61-11.42-5.63-20.96-10.34-27.21-15.36.7,8.09,3.17,23.18,4.95,34.05,1.5,9.14,2.92,17.77,3.79,24.42,1.37,10.49,1.3,13.72-1.82,14.87-1.13.41-3.29.63-5.24-2.58-1.53-2.53-3.01-5.84-4.71-9.67-7.27-16.34-19.44-43.68-57.66-53.57-14.38-3.72-25.82-6.09-35.01-7.99-20.66-4.27-31.57-6.53-40.35-17.47-2.29,8.59-3.18,36.39,4.5,71.78,8.22,37.89-25.79,68.84-39.11,75.83-1.84.96-6.71,3.52-9.45.6-1.1-1.17-1.94-3.32.26-6.92,3.52-5.75,11.13-21.66,5.92-45.08-6.29-28.23-28.61-57.13-66.35-85.9l-.12-.09c-.09-.07-.17-.14-.24-.2-.17.64-.34,1.37-.49,2.03-2.93,12.5-9.8,41.77-71.53,65.32-1.71.65-3.64-.21-4.29-1.92-.66-1.72.2-3.64,1.92-4.29,58.43-22.29,64.73-49.15,67.42-60.62.94-4,1.61-6.88,4.49-7.84,2.53-.85,4.82.64,6.92,2.38,38.99,29.73,62.13,59.91,68.76,89.7,4.81,21.62-.41,37.6-4.55,46,5.32-3.25,13.74-10.08,21.16-19.87,8.2-10.83,17.08-27.9,12.78-47.7-4.09-18.83-6.31-38.2-6.26-54.55.07-24.32,4.64-26.2,6.14-26.82.83-.35,3.74-1.18,6.12,2.45,7.52,10.45,16.37,12.28,37.69,16.69,9.26,1.92,20.79,4.3,35.33,8.06,38.78,10.03,52.6,36.34,60.56,53.95-.92-6.28-2.12-13.64-3.15-19.9-6.47-39.4-6.31-43.17-2.65-44.94.62-.3,2.79-1.09,4.9,1.24l.11.13c4.62,5.63,16.1,11.29,29.39,17.85,18.34,9.05,41.17,20.3,60.02,37.87l.32.35c.31.38.59.72.85,1.02-.73-8.54-7.27-30.55-15.92-47.68-11.74-23.28-8.5-55.54-1.89-62.18,1.84-1.84,4.21-2.31,6.35-1.24l.52.32c40.74,30.83,83.04,30.42,111.35,24.65,21.57-4.4,37.47-12.3,45.02-17.34-26.24-1.27-58.73-45.32-59.07-45.79-1.43-2.05-2.75-4.35-4.14-6.78-5.35-9.35-12-20.99-31.76-30.56l-.38-.22-111.82-74.06c-71.31-34.01-88.78-31.96-153.61-24.37-12.72,1.49-27.14,3.18-44.15,4.86-43.46,4.31-61.44,16.67-117.1,58.9l-3.05,2.31-4.67-8.35c-12.01,11.03-56.04,53.54-70.5,96.35-17.9,52.99-35.39,75.88-116.69,125.38l-.54.26c.09.97,1.54,3.94,6.32,7.59,15.52,11.86,48.5,18.97,90.47.1,1.95-1.6,3.82-.92,4.39-.65,2.54,1.21,3.23,4.4,2.36,10.99-1.73,13.1-10.91,43.09-34.39,72.36-28.17,35.12-68.38,58.38-116.29,67.29-.84.2-1.28.43-1.47.56.48,2.61,9.27,10.72,28.76,18.99,47.66,20.22,81.2,11.88,95.46-1.4,1.58-1.52,3.64-1.93,5.47-1.07,6.37,3.01,5.59,21.97,4.96,29.98-.93,11.77-5.01,42.37-22.81,72.31-17.64,29.68-42.93,49.49-75.18,58.91-1.01.32-1.78.62-2.35.88,5.26,2.19,21.92,5.03,49.06,2.94,90.75-6.99,129.95-51.72,142.65-70.75,1.25-2.16,2.98-2.43,3.86-2.42.94.03,2.69.43,3.84,2.85,2.47,5.21,3.04,21.94,1.29,38.07-1.67,15.4-5.99,36.78-17.12,51.2-1.12,1.45-1.8,2.53-2.22,3.3,5.55-1.42,20.91-9.79,39.15-28.39,16.86-17.18,39.08-46.07,49.17-86.11.45-1.78,2.26-2.86,4.04-2.41,1.78.45,2.86,2.26,2.41,4.04-18.23,72.29-77.58,117.18-94.81,119.61-.54.08-1.03.11-1.49.11Z"/>
  </g>
  <g id="Hair">
    <path class="cls-5" d="m802.52,686.08c54.26-42.98,58.99-81.74,36.44-156.97"/>
    <path class="cls-1" d="m802.52,689.4c-.98,0-1.95-.43-2.61-1.26-1.14-1.44-.9-3.53.54-4.67,26.78-21.22,40.92-41.1,45.84-64.47,4.67-22.18,1.52-48.78-10.51-88.94-.53-1.76.47-3.61,2.23-4.14,1.75-.53,3.61.47,4.14,2.23,12.38,41.29,15.56,68.87,10.65,92.22-5.26,25-20.13,46.07-48.21,68.31-.61.48-1.34.72-2.06.72Z"/>
  </g>
  <path class="cls-3" d="m819.4,456.36c25.76-5.94,30.58-27.77,30.58-27.77l-40.48-147.58"/>
  <g id="L_ear" data-name="L ear">
    <path class="cls-3" d="m819.4,456.36c-43.12-43.19-45.03-177.3-14.48-202.67,2.25-1.87,4.81-3.23,7.63-4.12"/>
    <path class="cls-6" d="m819.4,460.02c-.94,0-1.88-.36-2.59-1.07-27.82-27.86-38.15-90.74-35.99-137.37,1.62-34.8,9.55-60.57,21.76-70.71,2.57-2.13,5.55-3.75,8.86-4.79,1.93-.61,3.99.46,4.6,2.39.61,1.93-.46,3.98-2.39,4.6-2.4.76-4.55,1.92-6.39,3.44-10.47,8.7-17.62,33.16-19.12,65.42-2.1,45.07,7.6,105.56,33.85,131.85,1.43,1.43,1.43,3.75,0,5.18-.72.71-1.65,1.07-2.59,1.07Z"/>
  </g>
  <g id="L_ear-2" data-name="L ear">
    <path class="cls-6" d="m813.79,249.2c35.88-9.39,110.29,52.17,127.86,96.16,0,0-12.97,7.87-26.09,3.49s0,13.67-1.64,21.87c-1.64,8.2-15.85,15.31-26.79,11.48-10.93-3.83-3.83,13.67-10.93,25.69-7.11,12.03-25.24,18.56-25.24,18.56,0,0-67.3-116.39-37.76-177.09l.6-.16Z"/>
    <path class="cls-6" d="m849.32,430.94l-1.53-2.65c-.17-.29-17.14-29.81-30.24-66.38-17.77-49.65-20.35-88.05-7.65-114.15l.73-1.49,2.24-.61c17.68-4.63,44.64,5.84,73.98,28.72,27.23,21.24,49.54,47.92,58.21,69.63l1.15,2.88-2.65,1.61c-.59.36-14.59,8.69-29.15,3.84-.37-.12-.69-.22-.95-.28.31,1.57,1.1,3.96,1.68,5.7,1.57,4.73,3.2,9.63,2.38,13.69-.89,4.43-4.39,8.68-9.62,11.66-6.87,3.92-15.28,4.9-21.96,2.56-.67-.24-1.09-.31-1.32-.32-.52,1.06-.75,4.3-.91,6.5-.39,5.37-.87,12.04-4.34,17.92-7.69,13.01-26.36,19.85-27.15,20.14l-2.88,1.04Zm-33.54-178.44c-24.18,53.53,27.05,151.56,36.79,169.33,5.11-2.28,15.73-7.76,20.48-15.79,2.6-4.4,2.99-9.88,3.34-14.72.38-5.32.71-9.91,4.19-12.2,2.03-1.33,4.64-1.46,7.76-.37,4.74,1.66,10.84.89,15.92-2.01,3.34-1.9,5.61-4.42,6.07-6.74.43-2.16-1-6.48-2.15-9.95-1.91-5.75-3.55-10.71-.43-13.83,2.87-2.87,7.46-1.34,8.97-.84,7.95,2.65,16.06.04,20.21-1.76-18.92-41.75-87.92-98.26-121.15-91.13Z"/>
  </g>
  <g>
    <g>
      <path class="cls-3" d="m1109.72,375.27c-35.52,18.82-95.73,16.61-128.69-4.57-6.44-6.81,52.44-287.74,65.98-286.82,13.56.94,70.77,283.14,62.7,291.39Z"/>
      <path class="cls-2" d="m1050.42,391.37c-26.26,0-52.8-6.06-71.19-17.88l-.34-.22-.28-.29c-1.53-1.62-3.27-3.46,3.63-43.79,4.03-23.53,10.08-54.48,17.05-87.14,12.91-60.5,30.27-132.69,40.26-153.88,1.93-4.09,4.18-7.83,7.68-7.6,3.24.22,5.62,3.56,9.12,12.75,10.79,28.36,27.44,102.57,38.42,157.51,6.44,32.23,11.83,62.15,15.18,84.25,5.86,38.72,3.71,40.92,2.14,42.53l-.36.37-.46.24c-16.68,8.84-38.66,13.17-60.85,13.17Zm-66.56-22.82c32.05,19.86,88.88,21.86,123.22,4.34,1.38-8.59-7.02-64.68-23.62-144.27-17.09-81.93-30.85-130.93-36.54-140.34-5.51,8.85-18.96,53.93-37.47,138.3-16.59,75.59-26.37,133.08-25.58,141.96Zm125.86,6.71h.01-.01Zm-2.79-1.72h0Zm-122.95-4.29s0,0,0,0h0Z"/>
    </g>
    <g>
      <g>
        <path class="cls-3" d="m980.53,367.56s81.64-10.38,124.76-40.79"/>
        <path class="cls-1" d="m980.53,370.89c-1.65,0-3.08-1.23-3.29-2.9-.23-1.82,1.06-3.49,2.88-3.72.2-.03,20.58-2.65,45.91-8.94,33.32-8.27,60.07-19.08,77.36-31.27,1.5-1.05,3.57-.7,4.63.8,1.06,1.5.7,3.57-.8,4.63-43.3,30.53-122.89,40.94-126.26,41.37-.14.02-.28.03-.42.03Z"/>
      </g>
      <g>
        <path class="cls-3" d="m988.8,314.13s80.82-12.18,105.31-44.69"/>
        <path class="cls-1" d="m988.8,317.46c-1.62,0-3.03-1.18-3.28-2.83-.27-1.82.98-3.51,2.79-3.78.8-.12,79.76-12.35,103.15-43.4,1.11-1.47,3.19-1.76,4.65-.65,1.47,1.1,1.76,3.19.66,4.66-10.59,14.06-31.96,26.07-63.52,35.72-23.23,7.1-43.74,10.23-43.95,10.26-.17.03-.33.04-.5.04Z"/>
      </g>
      <g>
        <path class="cls-3" d="m999.36,269.44s49.38-12.07,83.35-46.16"/>
        <path class="cls-1" d="m999.36,272.76c-1.5,0-2.85-1.02-3.23-2.53-.44-1.78.66-3.58,2.44-4.02.48-.12,48.9-12.27,81.78-45.28,1.3-1.3,3.4-1.31,4.7,0,1.3,1.3,1.3,3.4,0,4.7-34.23,34.37-82.86,46.55-84.91,47.05-.27.07-.53.1-.79.1Z"/>
      </g>
      <g>
        <path class="cls-3" d="m1006.76,223.28s38.44-11.03,69.7-42.34"/>
        <path class="cls-1" d="m1006.76,226.6c-1.44,0-2.77-.95-3.19-2.41-.51-1.76.51-3.61,2.28-4.11.38-.11,38.02-11.2,68.26-41.49,1.3-1.3,3.4-1.3,4.7,0,1.3,1.3,1.3,3.4,0,4.7-31.5,31.55-69.53,42.72-71.13,43.18-.31.09-.62.13-.92.13Z"/>
      </g>
      <g>
        <path class="cls-3" d="m1018.47,178.31s30.96-11.85,47.32-35.7"/>
        <path class="cls-1" d="m1018.47,181.64c-1.34,0-2.6-.81-3.11-2.14-.66-1.71.2-3.64,1.91-4.29.3-.12,30.21-11.79,45.77-34.48,1.04-1.51,3.11-1.9,4.62-.86,1.51,1.04,1.9,3.11.86,4.62-16.76,24.43-47.57,36.43-48.88,36.93-.39.15-.79.22-1.19.22Z"/>
      </g>
      <g>
        <path class="cls-3" d="m1027.59,139.41s22.88-13.3,31.7-26.43"/>
        <path class="cls-1" d="m1027.59,142.74c-1.14,0-2.26-.59-2.88-1.65-.92-1.59-.38-3.62,1.2-4.54.22-.13,22.33-13.08,30.61-25.41,1.02-1.53,3.09-1.93,4.61-.91,1.52,1.02,1.93,3.09.91,4.61-9.14,13.61-31.83,26.89-32.79,27.45-.53.31-1.1.45-1.67.45Z"/>
      </g>
    </g>
    <path class="cls-6" d="m1050.42,391.7c-26.33,0-52.94-6.07-71.38-17.92l-.37-.24-.3-.32c-1.67-1.76-3.39-3.58,3.54-44.08,4.03-23.54,10.08-54.49,17.06-87.15,12.92-60.52,30.28-132.74,40.28-153.96,1.98-4.2,4.31-8.06,8.01-7.8,3.4.23,5.86,3.63,9.41,12.97,10.8,28.38,27.45,102.62,38.43,157.56,6.44,32.24,11.83,62.16,15.18,84.26,5.89,38.89,3.76,41.06,2.05,42.81l-.4.41-.5.27c-16.72,8.86-38.76,13.2-61.01,13.2Zm-66.24-23.34c31.94,19.7,88.37,21.68,122.58,4.32,1.24-9.07-7.16-65-23.63-143.92-16.81-80.56-30.41-129.36-36.23-139.8-5.65,9.83-18.96,54.86-37.16,137.8-16.44,74.96-26.22,132.25-25.57,141.6Zm125.53,6.91h.01-.01Zm-125.42-6.09s0,0,0,0h0Z"/>
  </g>
  <g>
    <ellipse class="cls-3" cx="1273.69" cy="695.41" rx="3.34" ry="12.58"/>
    <path class="cls-3" d="m1273.69,711.11c-5.83,0-6.46-10.98-6.46-15.7s.63-15.7,6.46-15.7,6.47,10.98,6.47,15.7-.63,15.7-6.47,15.7Zm0-20.01c-.13,1.26-.22,2.7-.22,4.31s.09,3.05.22,4.31c.13-1.26.22-2.7.22-4.31s-.09-3.05-.22-4.31Z"/>
  </g>
  <g>
    <ellipse class="cls-3" cx="1304.21" cy="682.84" rx="2.64" ry="11.38"/>
    <path class="cls-3" d="m1304.21,697.87c-4.18,0-6.3-5.06-6.3-15.04s2.12-15.04,6.3-15.04,6.3,5.06,6.3,15.04-2.12,15.04-6.3,15.04Z"/>
  </g>
  <g>
    <circle class="cls-3" cx="1130" cy="546.92" r="8.95"/>
    <path class="cls-3" d="m1130,559.53c-6.96,0-12.61-5.66-12.61-12.61s5.66-12.61,12.61-12.61,12.61,5.66,12.61,12.61-5.66,12.61-12.61,12.61Zm0-17.91c-2.92,0-5.29,2.37-5.29,5.29s2.37,5.29,5.29,5.29,5.29-2.37,5.29-5.29-2.37-5.29-5.29-5.29Z"/>
  </g>
  <g>
    <circle class="cls-3" cx="1101.77" cy="606.84" r="4.44"/>
    <path class="cls-3" d="m1101.78,614.94c-4.47,0-8.1-3.63-8.1-8.1s3.63-8.1,8.1-8.1,8.1,3.63,8.1,8.1-3.63,8.1-8.1,8.1Zm0-8.88c-.43,0-.78.35-.78.78s.35.78.78.78.78-.35.78-.78-.35-.78-.78-.78Z"/>
  </g>
  <g>
    <circle class="cls-3" cx="1248.93" cy="506.24" r="7.23"/>
    <path class="cls-3" d="m1248.93,517.51c-6.22,0-11.28-5.06-11.28-11.28s5.06-11.27,11.28-11.27,11.27,5.06,11.27,11.27-5.06,11.28-11.27,11.28Zm0-14.46c-1.76,0-3.19,1.43-3.19,3.18s1.43,3.19,3.19,3.19,3.18-1.43,3.18-3.19-1.43-3.18-3.18-3.18Z"/>
  </g>
  <g>
    <circle class="cls-3" cx="1224.52" cy="558.39" r="3.99"/>
    <path class="cls-3" d="m1224.52,566.04c-4.22,0-7.65-3.43-7.65-7.65s3.43-7.65,7.65-7.65,7.65,3.43,7.65,7.65-3.43,7.65-7.65,7.65Zm0-7.97c-.18,0-.33.15-.33.33,0,.36.65.36.65,0,0-.18-.15-.33-.33-.33Z"/>
  </g>
  <path class="cls-3" d="m1118.97,308.41s16.69,21.76,38.39,20.33,22.24-54.22,22.24-54.22"/>
  <g>
    <path class="cls-3" d="m1117.78,306.66c7.85-33.58,60.52-106.23,83.64-106.16,2.89,0,5.85,1.42,8.81,4.03l-48.58,122.25"/>
    <path class="cls-6" d="m1161.65,330.44c-.45,0-.91-.08-1.35-.26-1.88-.75-2.8-2.88-2.05-4.76l47.57-119.7c-1.57-1.04-3.05-1.57-4.4-1.57h-.02c-9.03,0-26.53,15.31-44.6,39.02-17.6,23.09-31.85,48.94-35.44,64.31-.46,1.97-2.44,3.19-4.4,2.73-1.97-.46-3.19-2.43-2.73-4.4,7.8-33.36,61.33-108.99,87.18-108.99h.04c3.74.01,7.52,1.68,11.22,4.95l1.93,1.7-49.53,124.64c-.57,1.44-1.95,2.31-3.4,2.31Z"/>
  </g>
  <g>
    <path class="cls-6" d="m1211.23,205.45c19.71,19.22,39.12,91.17,37.7,159.88-6.18-.73-14-15.12-19.76-10.79-5.76,4.32-27.38,0-34.1-4.32-6.72-4.32-.48-25.94-11.67-18.73s-26.03-4.31-26.03-4.31c0,0,17.62-112.88,49.9-121.18l3.97-.54Z"/>
    <path class="cls-6" d="m1252.5,369.44l-4.01-.48c-3.79-.45-7.17-3.63-10.44-6.7-1.59-1.49-5.79-5.46-6.7-4.8-7.58,5.68-30.91.57-38.28-4.17-4.29-2.75-4.94-8.64-5.52-13.83-.19-1.69-.48-4.35-.92-5.6-.29.13-.71.34-1.26.7-13.21,8.51-29.57-3.96-30.26-4.49l-1.71-1.32.33-2.13c.04-.28,4.54-28.78,12.94-57.93,11.59-40.16,24.93-62.45,39.66-66.24l.42-.08,5.74-.78,1.28,1.25c22.02,21.47,40.15,97.44,38.8,162.58l-.08,4.04Zm-21.06-19.42c4.29,0,8.4,3.87,11.63,6.9.7.65,1.48,1.39,2.26,2.08.07-30.14-3.75-62.31-10.89-91.3-6.7-27.18-15.8-48.75-24.56-58.38l-1.91.26c-23.87,6.54-41.36,83.7-46.63,115.88,3.82,2.43,13.15,7.39,20.07,2.93,1.21-.78,4.88-3.15,8.45-1.45,3.88,1.85,4.41,6.63,4.98,11.7.32,2.85.85,7.61,2.2,8.48,6.68,4.3,26.26,7.22,29.93,4.47,1.49-1.12,3-1.58,4.48-1.58Z"/>
  </g>
  <g>
    <path class="cls-1" d="m1021.08,529.11s76.33-4.13,148.06-19.94c72.56-16,132.23-41.86,132.23-41.86,0,0,30.63,98.25-11.68,110.41-56.5,16.24-71.35-26.96-83.71-70.24l-27.83,7.64s29.01,100.59-47.29,116.23c-97.32,19.96-105.56-61.49-109.78-102.25Z"/>
    <path class="cls-1" d="m1102.85,636.62c-18.4,0-33.85-4.52-46.14-13.54-30.42-22.3-35.03-66.88-37.79-93.51l-.26-2.54,2.3-.13c.76-.04,76.98-4.3,147.71-19.89,71.5-15.76,131.23-41.47,131.83-41.73l2.24-.97.73,2.33c.05.17,5.28,17.06,8.43,37.44,4.26,27.63,2.87,48.23-4.13,61.23-4.02,7.45-9.89,12.33-17.47,14.51-19.05,5.47-34.47,4.72-47.13-2.3-20.86-11.57-30.33-38.32-38.7-67.35l-23.63,6.49c2.69,10.53,12.68,56.21-6.58,88.07-9.15,15.12-23.6,24.81-42.95,28.77-10.14,2.08-19.63,3.12-28.45,3.12Zm-79.36-105.46c2.72,26.09,7.71,67.78,35.81,88.38,17.14,12.57,41.07,15.82,71.11,9.66,18.1-3.71,31.58-12.7,40.06-26.73,10.64-17.58,11.6-40.16,10.54-56-1.17-17.32-4.94-30.61-4.98-30.74l-.62-2.14,32.08-8.8.6,2.09c8.26,28.91,17.31,55.77,37.2,66.81,11.59,6.43,25.92,7.06,43.79,1.92,6.4-1.84,11.38-6,14.81-12.37,14.02-26.01-.51-80.99-3.94-92.95-11.65,4.85-66.31,26.9-130.34,41.02-64.17,14.15-132.8,19.01-146.12,19.85Z"/>
  </g>
  <g>
    <path class="cls-6" d="m461.29,1150.03c6.84-1.01,30.71-12.87,64-28.81-32.4-40.92-36.67-91.65-36.62-92.89-40.41,26.16-60.76,41.16-63.19,47.95-8.33,23.22,8.56,77.75,35.8,73.76Z"/>
    <path class="cls-6" d="m458.44,1153.9c-7.9,0-15.42-4.12-21.92-12.06-13.74-16.79-20.78-49.25-14.49-66.8,2.28-6.38,13.89-16.93,64.64-49.79l5.9-3.82-.25,6.91c.13,1.77,4.56,51.11,35.83,90.6l2.85,3.59-4.14,1.98c-4.76,2.28-9.32,4.47-13.67,6.57-29.55,14.21-45.25,21.67-51.38,22.57h0c-1.13.17-2.26.25-3.38.25Zm2.85-3.87h.01-.01Zm24.43-115.43c-18.53,12.04-54.18,35.62-56.79,42.9-5.48,15.27,1.09,44.83,13.26,59.7,5.78,7.07,12.03,10.16,18.57,9.2,5.31-.78,24.71-10.11,49.27-21.92,3.1-1.49,6.31-3.03,9.61-4.62-24.47-32.9-31.88-70.51-33.92-85.26Z"/>
  </g>
  <g id="Layer_4" data-name="Layer 4">
    <path class="cls-1" d="m1546.29,1383.81c110.44-68.66,127.77-129.46,109.96-227.92-12.17-67.28-44.04-129.87-70.83-118.68-19.49,8.14,1.1,25.92-94.74,119.64-95.84,93.72-940.62,321.24-1090.55,253.5-37.04-16.74-81.04-62.2-97.19-71.65-34.97-20.45-31.96,35.12-15.41,120.4,18.05,93.06,66.94,138.94,155.11,161.89,164.83,42.9,1034.49-194.2,1103.65-237.2Z"/>
    <g>
      <path class="cls-6" d="m1155.1,1276.39s-9.67,52.97-18.04,64.52c-13.36,15.96-77.1,28.7-99.25-2.63-5.93-11.12,13.95-73.47,13.95-73.47,0,0,47.14,22.16,103.34,11.57Z"/>
      <path class="cls-6" d="m1084.36,1361.19c-1.33,0-2.64-.03-3.95-.08-26.34-1.08-39.33-11.86-45.58-20.71l-.24-.39c-6.33-11.88,10.3-65.64,13.7-76.3l1.27-3.97,3.78,1.77c.46.22,46.81,21.52,101.1,11.29l5.24-.99-.96,5.24c-1,5.51-10.07,54.13-18.68,66.01l-.16.2c-8.56,10.21-32.84,17.92-55.51,17.92Zm-43.4-24.8c9.65,13.43,26.92,16.88,39.75,17.4,23.16.94,46.68-7.19,53.46-15.13,5.79-8.19,13.03-40.74,16.35-57.77-45.87,7.14-84.43-6.23-96.48-11.11-8.9,28.69-15.98,60.33-13.09,66.61Z"/>
    </g>
  </g>
  <g id="Layer_5" data-name="Layer 5">
    <g>
      <g>
        <path class="cls-6" d="m563.88,1642.05c3.17,25.72,39.86,42.37,81.95,37.18s73.64-30.25,70.47-55.97l-4.26-34.6-152.42,18.79,4.26,34.6Z"/>
        <path class="cls-6" d="m630.52,1683.85c-15.3,0-29.75-2.83-41.77-8.28-16.68-7.57-26.81-19.31-28.5-33.07l-4.71-38.23,159.69-19.68,4.71,38.24c3.41,27.69-29.63,54.63-73.66,60.05-5.31.65-10.59.98-15.76.98Zm-66.82-73.21l3.82,30.96c1.37,11.13,9.99,20.82,24.26,27.3,14.87,6.75,33.91,9.13,53.61,6.7,40.02-4.93,70.2-28.21,67.28-51.89l-3.82-30.97-145.15,17.89Z"/>
      </g>
      <g>
        <ellipse class="cls-6" cx="635.83" cy="1598.06" rx="76.79" ry="46.93" transform="translate(-190.71 89.78) rotate(-7.03)"/>
        <path class="cls-6" d="m626.52,1649.23c-37.25,0-67.53-16.95-70.53-41.33-3.41-27.69,29.63-54.63,73.66-60.05,21.01-2.59,41.44,0,57.53,7.3,16.68,7.57,26.81,19.32,28.5,33.07h0c1.69,13.76-5.27,27.61-19.62,39-13.83,10.98-33.02,18.46-54.04,21.05-5.26.65-10.45.96-15.5.96Zm18.93-95.04c-4.89,0-9.88.31-14.91.93-40.02,4.93-70.2,28.21-67.28,51.89,2.92,23.68,37.85,38.93,77.87,34,19.7-2.43,37.59-9.36,50.38-19.52,12.27-9.75,18.28-21.24,16.9-32.37h0c-1.37-11.13-9.99-20.82-24.26-27.3-11.07-5.02-24.45-7.63-38.7-7.63Z"/>
      </g>
    </g>
    <g>
      <g>
        <path class="cls-6" d="m539.41,1522.7c3.17,25.72,39.86,42.37,81.95,37.18,42.09-5.19,73.64-30.25,70.47-55.97l-4.26-34.6-152.42,18.79,4.26,34.6Z"/>
        <path class="cls-6" d="m606.04,1564.5c-15.3,0-29.74-2.83-41.76-8.28-16.68-7.57-26.81-19.32-28.5-33.07l-4.71-38.23,159.69-19.68,4.71,38.24c3.41,27.69-29.63,54.63-73.66,60.05-5.31.66-10.59.98-15.77.98Zm-66.81-73.21l3.82,30.96c1.37,11.13,9.99,20.82,24.26,27.3,14.87,6.75,33.92,9.13,53.61,6.7,40.02-4.93,70.2-28.21,67.28-51.89l-3.82-30.97-145.15,17.89Z"/>
      </g>
      <g>
        <ellipse class="cls-6" cx="611.36" cy="1478.71" rx="76.79" ry="46.93" transform="translate(-176.29 85.89) rotate(-7.03)"/>
        <path class="cls-6" d="m602.05,1529.88c-37.25,0-67.53-16.95-70.53-41.33-3.41-27.69,29.63-54.63,73.66-60.05,21.01-2.59,41.45,0,57.53,7.3,16.68,7.57,26.81,19.32,28.5,33.07h0c1.69,13.76-5.27,27.61-19.62,39-13.83,10.99-33.02,18.46-54.04,21.05-5.26.65-10.45.96-15.5.96Zm18.93-95.04c-4.89,0-9.88.31-14.91.93-40.02,4.93-70.2,28.21-67.28,51.89,2.92,23.68,37.84,38.94,77.87,34,19.7-2.43,37.59-9.36,50.38-19.52,12.27-9.75,18.28-21.24,16.9-32.37h0c-1.37-11.13-9.99-20.82-24.26-27.3-11.07-5.02-24.46-7.63-38.7-7.63Z"/>
      </g>
    </g>
    <g>
      <g>
        <path class="cls-6" d="m1381.37,1439.48c5.99,25.22,44.3,37.71,85.55,27.91,41.26-9.8,69.85-38.19,63.86-63.41l-8.06-33.92-149.41,35.5,8.06,33.92Z"/>
        <path class="cls-6" d="m1439.1,1474.4c-10.46,0-20.42-1.45-29.31-4.35-17.42-5.68-28.77-16.24-31.98-29.72l-8.9-37.48,156.54-37.19,8.91,37.48c3.2,13.49-2.19,28.02-15.19,40.93-12.53,12.44-30.78,21.99-51.38,26.89-9.69,2.3-19.38,3.45-28.68,3.45Zm-61.37-66.12l7.21,30.36c2.59,10.91,12.22,19.59,27.12,24.45,15.53,5.07,34.71,5.33,54.02.74,19.31-4.59,36.33-13.45,47.92-24.96,11.12-11.04,15.82-23.13,13.23-34.04l-7.21-30.36-142.29,33.81Z"/>
      </g>
      <g>
        <ellipse class="cls-6" cx="1448.02" cy="1387.81" rx="76.79" ry="46.93" transform="translate(-281.58 372.3) rotate(-13.37)"/>
        <path class="cls-6" d="m1431.04,1440.48c-10.46,0-20.42-1.45-29.31-4.36-17.42-5.68-28.77-16.24-31.98-29.72-3.2-13.48,2.19-28.02,15.19-40.93,12.53-12.44,30.78-21.99,51.38-26.89,20.6-4.89,41.19-4.57,57.99.9,17.42,5.68,28.77,16.24,31.98,29.72,3.2,13.49-2.19,28.02-15.19,40.93-12.53,12.44-30.78,21.99-51.38,26.89-9.69,2.3-19.39,3.45-28.68,3.45Zm33.98-98.03c-8.72,0-17.84,1.09-27,3.26-19.31,4.59-36.32,13.45-47.91,24.96-11.12,11.04-15.82,23.13-13.23,34.04,2.59,10.91,12.22,19.59,27.12,24.45,15.53,5.06,34.71,5.33,54.02.74,19.31-4.59,36.32-13.45,47.91-24.96,11.12-11.04,15.82-23.13,13.23-34.04h0c-2.59-10.91-12.22-19.59-27.12-24.45-8.17-2.66-17.35-4-27.03-4Z"/>
      </g>
    </g>
    <g>
      <g>
        <path class="cls-6" d="m1343.02,1320.88c5.99,25.22,44.3,37.71,85.55,27.91,41.26-9.8,69.85-38.19,63.86-63.41l-8.06-33.92-149.41,35.5,8.06,33.92Z"/>
        <path class="cls-6" d="m1400.75,1355.81c-10.46,0-20.41-1.45-29.31-4.36-17.42-5.68-28.78-16.24-31.98-29.72l-8.9-37.48,156.54-37.19,8.9,37.48c3.2,13.49-2.19,28.02-15.19,40.93-12.53,12.44-30.78,21.99-51.38,26.89-9.69,2.3-19.39,3.45-28.68,3.45Zm-54.16-35.77c2.59,10.91,12.22,19.59,27.12,24.45,15.53,5.06,34.71,5.33,54.02.74,19.31-4.59,36.32-13.45,47.91-24.96,11.12-11.04,15.82-23.13,13.23-34.04l-7.21-30.36-142.29,33.81,7.21,30.35Z"/>
      </g>
      <g>
        <ellipse class="cls-6" cx="1409.67" cy="1269.21" rx="76.79" ry="46.93" transform="translate(-255.21 360.23) rotate(-13.37)"/>
        <path class="cls-6" d="m1393.03,1321.83c-31.26,0-56.63-12.98-61.63-34.02-3.2-13.49,2.19-28.02,15.19-40.93,12.53-12.44,30.78-21.99,51.38-26.89,20.6-4.89,41.19-4.57,57.98.9,17.42,5.68,28.78,16.24,31.98,29.72h0c6.45,27.14-23.42,57.56-66.57,67.82-9.7,2.3-19.27,3.4-28.33,3.4Zm33.63-97.97c-8.72,0-17.84,1.08-27,3.26-19.31,4.59-36.33,13.45-47.91,24.96-11.12,11.04-15.82,23.13-13.23,34.04,5.52,23.21,41.92,34.51,81.14,25.19,39.23-9.32,66.65-35.79,61.14-59h0c-2.59-10.91-12.22-19.59-27.12-24.45-8.17-2.66-17.35-4-27.02-4Z"/>
      </g>
    </g>
  </g>
</svg>